<mxfile host="app.diagrams.net" modified="2020-12-11T10:24:17.441Z" agent="5.0 (Windows NT 10.0; Win64; x64) AppleWebKit/537.36 (KHTML, like Gecko) Chrome/87.0.4280.88 Safari/537.36" etag="dzIjEa06qKP-FuPohSKA" version="14.0.0" type="github" pages="2">
  <diagram id="R2lEEEUBdFMjLlhIrx00" name="Page-1">
    <mxGraphModel dx="1209" dy="637" grid="0" gridSize="10" guides="1" tooltips="1" connect="1" arrows="1" fold="1" page="1" pageScale="1" pageWidth="1169" pageHeight="827" math="0" shadow="0" extFonts="Permanent Marker^https://fonts.googleapis.com/css?family=Permanent+Marker">
      <root>
        <mxCell id="0" />
        <mxCell id="1" parent="0" />
        <mxCell id="9MYYT_YsKxKuT01WDasr-1" value="Bệnh Nhân" style="rounded=0;whiteSpace=wrap;html=1;fontFamily=Times New Roman;labelBorderColor=none;labelBackgroundColor=none;fillColor=#dae8fc;strokeColor=#6c8ebf;fontStyle=1;fontColor=#FF0000;" vertex="1" parent="1">
          <mxGeometry x="180" y="290" width="90" height="30" as="geometry" />
        </mxCell>
        <mxCell id="9MYYT_YsKxKuT01WDasr-7" value="Ảnh" style="rounded=0;whiteSpace=wrap;html=1;fontFamily=Times New Roman;labelBorderColor=none;labelBackgroundColor=none;fillColor=#dae8fc;strokeColor=#6c8ebf;fontStyle=1;fontColor=#FF0000;" vertex="1" parent="1">
          <mxGeometry x="480" y="130" width="90" height="30" as="geometry" />
        </mxCell>
        <mxCell id="9MYYT_YsKxKuT01WDasr-8" value="Yêu Cầu" style="rounded=0;whiteSpace=wrap;html=1;fontFamily=Times New Roman;labelBorderColor=none;labelBackgroundColor=none;fontStyle=1;fontColor=#FF0000;" vertex="1" parent="1">
          <mxGeometry x="480" y="290" width="90" height="30" as="geometry" />
        </mxCell>
        <mxCell id="9MYYT_YsKxKuT01WDasr-9" value="Câu Trả Lời" style="rounded=0;whiteSpace=wrap;html=1;fontFamily=Times New Roman;labelBorderColor=none;labelBackgroundColor=none;fontStyle=1;fontColor=#FF0000;" vertex="1" parent="1">
          <mxGeometry x="480" y="520" width="90" height="30" as="geometry" />
        </mxCell>
        <mxCell id="9MYYT_YsKxKuT01WDasr-10" value="Câu Hỏi" style="rounded=0;whiteSpace=wrap;html=1;fontFamily=Times New Roman;labelBorderColor=none;labelBackgroundColor=none;fontStyle=1;fontColor=#FF0000;" vertex="1" parent="1">
          <mxGeometry x="820" y="520" width="90" height="30" as="geometry" />
        </mxCell>
        <mxCell id="9MYYT_YsKxKuT01WDasr-11" value="Bác Sĩ-Yêu Cầu" style="rounded=0;whiteSpace=wrap;html=1;fontFamily=Times New Roman;labelBorderColor=none;labelBackgroundColor=none;fillColor=#dae8fc;strokeColor=#6c8ebf;fontStyle=1;fontColor=#FF0000;" vertex="1" parent="1">
          <mxGeometry x="790" y="290" width="90" height="30" as="geometry" />
        </mxCell>
        <mxCell id="9MYYT_YsKxKuT01WDasr-12" value="Gửi" style="rhombus;whiteSpace=wrap;html=1;fontFamily=Times New Roman;labelBorderColor=none;labelBackgroundColor=none;fillColor=#dae8fc;strokeColor=#6c8ebf;fontStyle=1;fontColor=#FF0000;" vertex="1" parent="1">
          <mxGeometry x="330" y="272.5" width="80" height="65" as="geometry" />
        </mxCell>
        <mxCell id="9MYYT_YsKxKuT01WDasr-13" value="Thuộc" style="rhombus;whiteSpace=wrap;html=1;fontFamily=Times New Roman;labelBorderColor=none;labelBackgroundColor=none;fontStyle=1;fontColor=#FF0000;" vertex="1" parent="1">
          <mxGeometry x="485" y="185" width="80" height="65" as="geometry" />
        </mxCell>
        <mxCell id="9MYYT_YsKxKuT01WDasr-14" value="Của" style="rhombus;whiteSpace=wrap;html=1;fontFamily=Times New Roman;labelBorderColor=none;labelBackgroundColor=none;fontStyle=1;fontColor=#FF0000;" vertex="1" parent="1">
          <mxGeometry x="675" y="272.5" width="80" height="65" as="geometry" />
        </mxCell>
        <mxCell id="9MYYT_YsKxKuT01WDasr-15" value="Thuộc" style="rhombus;whiteSpace=wrap;html=1;fontFamily=Times New Roman;labelBorderColor=none;labelBackgroundColor=none;fontStyle=1;fontColor=#FF0000;" vertex="1" parent="1">
          <mxGeometry x="480" y="390" width="80" height="65" as="geometry" />
        </mxCell>
        <mxCell id="9MYYT_YsKxKuT01WDasr-16" value="Cho" style="rhombus;whiteSpace=wrap;html=1;fontFamily=Times New Roman;labelBorderColor=none;labelBackgroundColor=none;fontStyle=1;fontColor=#FF0000;" vertex="1" parent="1">
          <mxGeometry x="675" y="502.5" width="80" height="65" as="geometry" />
        </mxCell>
        <mxCell id="9MYYT_YsKxKuT01WDasr-17" value="Số điện thoại" style="ellipse;whiteSpace=wrap;html=1;fontFamily=Times New Roman;labelBorderColor=none;labelBackgroundColor=none;fontStyle=1;fontColor=#FF0000;" vertex="1" parent="1">
          <mxGeometry x="10" y="180" width="90" height="40" as="geometry" />
        </mxCell>
        <mxCell id="9MYYT_YsKxKuT01WDasr-18" value="Địa chỉ" style="ellipse;whiteSpace=wrap;html=1;fontFamily=Times New Roman;labelBorderColor=none;labelBackgroundColor=none;fontStyle=1;fontColor=#FF0000;" vertex="1" parent="1">
          <mxGeometry x="180" y="125" width="90" height="40" as="geometry" />
        </mxCell>
        <mxCell id="9MYYT_YsKxKuT01WDasr-19" value="Tuổi" style="ellipse;whiteSpace=wrap;html=1;fontFamily=Times New Roman;labelBorderColor=none;labelBackgroundColor=none;fontStyle=1;fontColor=#FF0000;" vertex="1" parent="1">
          <mxGeometry x="80" y="125" width="90" height="40" as="geometry" />
        </mxCell>
        <mxCell id="9MYYT_YsKxKuT01WDasr-20" value="ID" style="ellipse;whiteSpace=wrap;html=1;fontStyle=5;fontFamily=Times New Roman;labelBorderColor=none;labelBackgroundColor=none;fontColor=#FF0000;" vertex="1" parent="1">
          <mxGeometry x="10" y="250" width="90" height="40" as="geometry" />
        </mxCell>
        <mxCell id="9MYYT_YsKxKuT01WDasr-21" value="Password" style="ellipse;whiteSpace=wrap;html=1;fontFamily=Times New Roman;labelBorderColor=none;labelBackgroundColor=none;fontStyle=1;fontColor=#FF0000;" vertex="1" parent="1">
          <mxGeometry x="20" y="393.5" width="90" height="40" as="geometry" />
        </mxCell>
        <mxCell id="9MYYT_YsKxKuT01WDasr-22" value="Username" style="ellipse;whiteSpace=wrap;html=1;fontFamily=Times New Roman;labelBorderColor=none;labelBackgroundColor=none;fillColor=#dae8fc;strokeColor=#6c8ebf;fontStyle=1;fontColor=#FF0000;" vertex="1" parent="1">
          <mxGeometry x="70" y="455" width="90" height="40" as="geometry" />
        </mxCell>
        <mxCell id="9MYYT_YsKxKuT01WDasr-23" value="Tên" style="ellipse;whiteSpace=wrap;html=1;fontFamily=Times New Roman;labelBorderColor=none;labelBackgroundColor=none;fontStyle=1;fontColor=#FF0000;" vertex="1" parent="1">
          <mxGeometry x="10" y="330" width="90" height="40" as="geometry" />
        </mxCell>
        <mxCell id="9MYYT_YsKxKuT01WDasr-24" value="Email" style="ellipse;whiteSpace=wrap;html=1;fontFamily=Times New Roman;labelBorderColor=none;labelBackgroundColor=none;fillColor=#dae8fc;strokeColor=#6c8ebf;fontStyle=1;fontColor=#FF0000;" vertex="1" parent="1">
          <mxGeometry x="170" y="455" width="90" height="40" as="geometry" />
        </mxCell>
        <mxCell id="9MYYT_YsKxKuT01WDasr-25" value="ID" style="ellipse;whiteSpace=wrap;html=1;fontStyle=5;fontFamily=Times New Roman;labelBorderColor=none;labelBackgroundColor=none;fontColor=#FF0000;" vertex="1" parent="1">
          <mxGeometry x="360" y="40" width="90" height="40" as="geometry" />
        </mxCell>
        <mxCell id="9MYYT_YsKxKuT01WDasr-26" value="ID yêu cầu" style="ellipse;whiteSpace=wrap;html=1;fontFamily=Times New Roman;labelBorderColor=none;labelBackgroundColor=none;fillColor=#dae8fc;strokeColor=#6c8ebf;fontStyle=1;fontColor=#FF0000;" vertex="1" parent="1">
          <mxGeometry x="475" y="40" width="90" height="40" as="geometry" />
        </mxCell>
        <mxCell id="9MYYT_YsKxKuT01WDasr-27" value="Link ảnh" style="ellipse;whiteSpace=wrap;html=1;fontFamily=Times New Roman;labelBorderColor=none;labelBackgroundColor=none;fillColor=#dae8fc;strokeColor=#6c8ebf;fontStyle=1;fontColor=#FF0000;" vertex="1" parent="1">
          <mxGeometry x="585" y="40" width="90" height="40" as="geometry" />
        </mxCell>
        <mxCell id="9MYYT_YsKxKuT01WDasr-28" value="ID" style="ellipse;whiteSpace=wrap;html=1;fontStyle=5;fontFamily=Times New Roman;labelBorderColor=none;labelBackgroundColor=none;fontColor=#FF0000;" vertex="1" parent="1">
          <mxGeometry x="380" y="220" width="90" height="40" as="geometry" />
        </mxCell>
        <mxCell id="9MYYT_YsKxKuT01WDasr-29" value="ID bệnh nhân" style="ellipse;whiteSpace=wrap;html=1;fontFamily=Times New Roman;labelBorderColor=none;labelBackgroundColor=none;fillColor=#dae8fc;strokeColor=#6c8ebf;fontStyle=1;fontColor=#FF0000;" vertex="1" parent="1">
          <mxGeometry x="390" y="353.5" width="90" height="40" as="geometry" />
        </mxCell>
        <mxCell id="9MYYT_YsKxKuT01WDasr-30" value="Ngày gửi" style="ellipse;whiteSpace=wrap;html=1;fontFamily=Times New Roman;labelBorderColor=none;labelBackgroundColor=none;fontStyle=1;fontColor=#FF0000;" vertex="1" parent="1">
          <mxGeometry x="560" y="353.5" width="90" height="40" as="geometry" />
        </mxCell>
        <mxCell id="9MYYT_YsKxKuT01WDasr-31" value="Tình trạng" style="ellipse;whiteSpace=wrap;html=1;fontFamily=Times New Roman;labelBorderColor=none;labelBackgroundColor=none;fontStyle=1;fontColor=#FF0000;" vertex="1" parent="1">
          <mxGeometry x="570" y="220" width="90" height="40" as="geometry" />
        </mxCell>
        <mxCell id="9MYYT_YsKxKuT01WDasr-32" value="ID" style="ellipse;whiteSpace=wrap;html=1;fontStyle=5;fontFamily=Times New Roman;labelBorderColor=none;labelBackgroundColor=none;fillColor=#dae8fc;strokeColor=#6c8ebf;fontColor=#FF0000;" vertex="1" parent="1">
          <mxGeometry x="840" y="120" width="90" height="40" as="geometry" />
        </mxCell>
        <mxCell id="9MYYT_YsKxKuT01WDasr-33" value="ID yêu cầu" style="ellipse;whiteSpace=wrap;html=1;fontFamily=Times New Roman;labelBorderColor=none;labelBackgroundColor=none;fillColor=#dae8fc;strokeColor=#6c8ebf;fontStyle=1;fontColor=#FF0000;" vertex="1" parent="1">
          <mxGeometry x="920" y="160" width="90" height="40" as="geometry" />
        </mxCell>
        <mxCell id="9MYYT_YsKxKuT01WDasr-34" value="ID bác sĩ" style="ellipse;whiteSpace=wrap;html=1;fontFamily=Times New Roman;labelBorderColor=none;labelBackgroundColor=none;fillColor=#dae8fc;strokeColor=#6c8ebf;fontStyle=1;fontColor=#FF0000;" vertex="1" parent="1">
          <mxGeometry x="920" y="232.5" width="90" height="40" as="geometry" />
        </mxCell>
        <mxCell id="9MYYT_YsKxKuT01WDasr-35" value="Ghi chú" style="ellipse;whiteSpace=wrap;html=1;fontFamily=Times New Roman;labelBorderColor=none;labelBackgroundColor=none;fillColor=#dae8fc;strokeColor=#6c8ebf;fontStyle=1;fontColor=#FF0000;" vertex="1" parent="1">
          <mxGeometry x="920" y="297.5" width="90" height="40" as="geometry" />
        </mxCell>
        <mxCell id="9MYYT_YsKxKuT01WDasr-36" value="Tình trạng" style="ellipse;whiteSpace=wrap;html=1;fontFamily=Times New Roman;labelBorderColor=none;labelBackgroundColor=none;fillColor=#dae8fc;strokeColor=#6c8ebf;fontStyle=1;fontColor=#FF0000;" vertex="1" parent="1">
          <mxGeometry x="920" y="362.5" width="90" height="40" as="geometry" />
        </mxCell>
        <mxCell id="9MYYT_YsKxKuT01WDasr-37" value="Ngày nhận" style="ellipse;whiteSpace=wrap;html=1;fontFamily=Times New Roman;labelBorderColor=none;labelBackgroundColor=none;fillColor=#dae8fc;strokeColor=#6c8ebf;fontStyle=1;fontColor=#FF0000;" vertex="1" parent="1">
          <mxGeometry x="830" y="414" width="90" height="40" as="geometry" />
        </mxCell>
        <mxCell id="9MYYT_YsKxKuT01WDasr-39" value="ID" style="ellipse;whiteSpace=wrap;html=1;fontStyle=5;fontFamily=Times New Roman;labelBorderColor=none;labelBackgroundColor=none;fontColor=#FF0000;" vertex="1" parent="1">
          <mxGeometry x="320" y="560" width="90" height="40" as="geometry" />
        </mxCell>
        <mxCell id="9MYYT_YsKxKuT01WDasr-40" value="ID câu hỏi" style="ellipse;whiteSpace=wrap;html=1;fontFamily=Times New Roman;labelBorderColor=none;labelBackgroundColor=none;fontStyle=1;fontColor=#FF0000;" vertex="1" parent="1">
          <mxGeometry x="410" y="600" width="90" height="40" as="geometry" />
        </mxCell>
        <mxCell id="9MYYT_YsKxKuT01WDasr-41" value="Câu trả lời" style="ellipse;whiteSpace=wrap;html=1;fontFamily=Times New Roman;labelBorderColor=none;labelBackgroundColor=none;fontStyle=1;fontColor=#FF0000;" vertex="1" parent="1">
          <mxGeometry x="600" y="560" width="90" height="40" as="geometry" />
        </mxCell>
        <mxCell id="9MYYT_YsKxKuT01WDasr-42" value="ID yêu cầu" style="ellipse;whiteSpace=wrap;html=1;fontFamily=Times New Roman;labelBorderColor=none;labelBackgroundColor=none;fontStyle=1;fontColor=#FF0000;" vertex="1" parent="1">
          <mxGeometry x="510" y="600" width="90" height="40" as="geometry" />
        </mxCell>
        <mxCell id="9MYYT_YsKxKuT01WDasr-43" value="ID" style="ellipse;whiteSpace=wrap;html=1;fontStyle=5;fontFamily=Times New Roman;labelBorderColor=none;labelBackgroundColor=none;fontColor=#FF0000;" vertex="1" parent="1">
          <mxGeometry x="930" y="480" width="90" height="40" as="geometry" />
        </mxCell>
        <mxCell id="9MYYT_YsKxKuT01WDasr-44" value="Câu hỏi" style="ellipse;whiteSpace=wrap;html=1;fontFamily=Times New Roman;labelBorderColor=none;labelBackgroundColor=none;fontStyle=1;fontColor=#FF0000;" vertex="1" parent="1">
          <mxGeometry x="930" y="560" width="90" height="40" as="geometry" />
        </mxCell>
        <mxCell id="9MYYT_YsKxKuT01WDasr-45" value="" style="endArrow=none;html=1;exitX=0.5;exitY=0;exitDx=0;exitDy=0;entryX=0.444;entryY=1;entryDx=0;entryDy=0;entryPerimeter=0;fontFamily=Times New Roman;labelBorderColor=none;labelBackgroundColor=none;fontStyle=1;fontColor=#FF0000;" edge="1" parent="1" source="9MYYT_YsKxKuT01WDasr-24" target="9MYYT_YsKxKuT01WDasr-1">
          <mxGeometry width="50" height="50" relative="1" as="geometry">
            <mxPoint x="180" y="370" as="sourcePoint" />
            <mxPoint x="230" y="320" as="targetPoint" />
          </mxGeometry>
        </mxCell>
        <mxCell id="9MYYT_YsKxKuT01WDasr-47" value="" style="endArrow=none;html=1;exitX=1;exitY=0;exitDx=0;exitDy=0;fontFamily=Times New Roman;labelBorderColor=none;labelBackgroundColor=none;fontStyle=1;fontColor=#FF0000;" edge="1" parent="1" source="9MYYT_YsKxKuT01WDasr-22">
          <mxGeometry width="50" height="50" relative="1" as="geometry">
            <mxPoint x="200" y="454" as="sourcePoint" />
            <mxPoint x="215" y="319" as="targetPoint" />
          </mxGeometry>
        </mxCell>
        <mxCell id="9MYYT_YsKxKuT01WDasr-48" value="" style="endArrow=none;html=1;exitX=1;exitY=0.5;exitDx=0;exitDy=0;entryX=0.25;entryY=1;entryDx=0;entryDy=0;fontFamily=Times New Roman;labelBorderColor=none;labelBackgroundColor=none;fontStyle=1;fontColor=#FF0000;" edge="1" parent="1" source="9MYYT_YsKxKuT01WDasr-21" target="9MYYT_YsKxKuT01WDasr-1">
          <mxGeometry width="50" height="50" relative="1" as="geometry">
            <mxPoint x="165" y="450" as="sourcePoint" />
            <mxPoint x="180" y="315" as="targetPoint" />
          </mxGeometry>
        </mxCell>
        <mxCell id="9MYYT_YsKxKuT01WDasr-49" value="" style="endArrow=none;html=1;fontFamily=Times New Roman;labelBorderColor=none;labelBackgroundColor=none;fontStyle=1;fontColor=#FF0000;" edge="1" parent="1">
          <mxGeometry width="50" height="50" relative="1" as="geometry">
            <mxPoint x="223" y="290" as="sourcePoint" />
            <mxPoint x="222.5" y="165" as="targetPoint" />
          </mxGeometry>
        </mxCell>
        <mxCell id="9MYYT_YsKxKuT01WDasr-50" value="" style="endArrow=none;html=1;exitX=0.25;exitY=0;exitDx=0;exitDy=0;fontFamily=Times New Roman;labelBorderColor=none;labelBackgroundColor=none;fontStyle=1;fontColor=#FF0000;" edge="1" parent="1" source="9MYYT_YsKxKuT01WDasr-1">
          <mxGeometry width="50" height="50" relative="1" as="geometry">
            <mxPoint x="110" y="300" as="sourcePoint" />
            <mxPoint x="125" y="165" as="targetPoint" />
          </mxGeometry>
        </mxCell>
        <mxCell id="9MYYT_YsKxKuT01WDasr-51" value="" style="endArrow=none;html=1;exitX=0;exitY=0;exitDx=0;exitDy=0;fontFamily=Times New Roman;labelBorderColor=none;labelBackgroundColor=none;fontStyle=1;fontColor=#FF0000;" edge="1" parent="1" source="9MYYT_YsKxKuT01WDasr-1">
          <mxGeometry width="50" height="50" relative="1" as="geometry">
            <mxPoint x="85" y="335" as="sourcePoint" />
            <mxPoint x="100" y="200" as="targetPoint" />
          </mxGeometry>
        </mxCell>
        <mxCell id="9MYYT_YsKxKuT01WDasr-52" value="" style="endArrow=none;html=1;exitX=0;exitY=0.5;exitDx=0;exitDy=0;fontFamily=Times New Roman;labelBorderColor=none;labelBackgroundColor=none;fontStyle=1;fontColor=#FF0000;" edge="1" parent="1" source="9MYYT_YsKxKuT01WDasr-1">
          <mxGeometry width="50" height="50" relative="1" as="geometry">
            <mxPoint x="85" y="407.5" as="sourcePoint" />
            <mxPoint x="100" y="272.5" as="targetPoint" />
          </mxGeometry>
        </mxCell>
        <mxCell id="9MYYT_YsKxKuT01WDasr-53" value="" style="endArrow=none;html=1;exitX=1;exitY=0.5;exitDx=0;exitDy=0;entryX=0;entryY=1;entryDx=0;entryDy=0;fontFamily=Times New Roman;labelBorderColor=none;labelBackgroundColor=none;fontStyle=1;fontColor=#FF0000;" edge="1" parent="1" source="9MYYT_YsKxKuT01WDasr-23" target="9MYYT_YsKxKuT01WDasr-1">
          <mxGeometry width="50" height="50" relative="1" as="geometry">
            <mxPoint x="100" y="355" as="sourcePoint" />
            <mxPoint x="115" y="220" as="targetPoint" />
          </mxGeometry>
        </mxCell>
        <mxCell id="9MYYT_YsKxKuT01WDasr-54" value="" style="endArrow=none;html=1;exitX=0.75;exitY=0;exitDx=0;exitDy=0;entryX=0.5;entryY=1;entryDx=0;entryDy=0;fontFamily=Times New Roman;labelBorderColor=none;labelBackgroundColor=none;fontStyle=1;fontColor=#FF0000;" edge="1" parent="1" source="9MYYT_YsKxKuT01WDasr-7" target="9MYYT_YsKxKuT01WDasr-27">
          <mxGeometry width="50" height="50" relative="1" as="geometry">
            <mxPoint x="610" y="235" as="sourcePoint" />
            <mxPoint x="625" y="100" as="targetPoint" />
          </mxGeometry>
        </mxCell>
        <mxCell id="9MYYT_YsKxKuT01WDasr-55" value="" style="endArrow=none;html=1;exitX=0;exitY=0;exitDx=0;exitDy=0;entryX=0.5;entryY=1;entryDx=0;entryDy=0;fontFamily=Times New Roman;labelBorderColor=none;labelBackgroundColor=none;fontStyle=1;fontColor=#FF0000;" edge="1" parent="1" source="9MYYT_YsKxKuT01WDasr-7" target="9MYYT_YsKxKuT01WDasr-25">
          <mxGeometry width="50" height="50" relative="1" as="geometry">
            <mxPoint x="375" y="235" as="sourcePoint" />
            <mxPoint x="390" y="100" as="targetPoint" />
          </mxGeometry>
        </mxCell>
        <mxCell id="9MYYT_YsKxKuT01WDasr-56" value="" style="endArrow=none;html=1;exitX=0.444;exitY=0;exitDx=0;exitDy=0;entryX=0.5;entryY=1;entryDx=0;entryDy=0;exitPerimeter=0;fontFamily=Times New Roman;labelBorderColor=none;labelBackgroundColor=none;fontStyle=1;fontColor=#FF0000;" edge="1" parent="1" source="9MYYT_YsKxKuT01WDasr-7" target="9MYYT_YsKxKuT01WDasr-26">
          <mxGeometry width="50" height="50" relative="1" as="geometry">
            <mxPoint x="500" y="235" as="sourcePoint" />
            <mxPoint x="515" y="100" as="targetPoint" />
          </mxGeometry>
        </mxCell>
        <mxCell id="9MYYT_YsKxKuT01WDasr-57" value="" style="endArrow=none;html=1;exitX=0.5;exitY=0;exitDx=0;exitDy=0;entryX=0;entryY=1;entryDx=0;entryDy=0;fontFamily=Times New Roman;labelBorderColor=none;labelBackgroundColor=none;fontStyle=1;fontColor=#FF0000;" edge="1" parent="1" source="9MYYT_YsKxKuT01WDasr-39" target="9MYYT_YsKxKuT01WDasr-9">
          <mxGeometry width="50" height="50" relative="1" as="geometry">
            <mxPoint x="325" y="565" as="sourcePoint" />
            <mxPoint x="340" y="430" as="targetPoint" />
          </mxGeometry>
        </mxCell>
        <mxCell id="9MYYT_YsKxKuT01WDasr-58" value="" style="endArrow=none;html=1;exitX=0.5;exitY=0;exitDx=0;exitDy=0;fontFamily=Times New Roman;labelBorderColor=none;labelBackgroundColor=none;fontStyle=1;fontColor=#FF0000;" edge="1" parent="1" source="9MYYT_YsKxKuT01WDasr-40" target="9MYYT_YsKxKuT01WDasr-9">
          <mxGeometry width="50" height="50" relative="1" as="geometry">
            <mxPoint x="335" y="575" as="sourcePoint" />
            <mxPoint x="350" y="440" as="targetPoint" />
          </mxGeometry>
        </mxCell>
        <mxCell id="9MYYT_YsKxKuT01WDasr-59" value="" style="endArrow=none;html=1;exitX=0.5;exitY=0;exitDx=0;exitDy=0;entryX=0.5;entryY=1;entryDx=0;entryDy=0;fontFamily=Times New Roman;labelBorderColor=none;labelBackgroundColor=none;fontStyle=1;fontColor=#FF0000;" edge="1" parent="1" source="9MYYT_YsKxKuT01WDasr-42" target="9MYYT_YsKxKuT01WDasr-9">
          <mxGeometry width="50" height="50" relative="1" as="geometry">
            <mxPoint x="345" y="585" as="sourcePoint" />
            <mxPoint x="360" y="450" as="targetPoint" />
          </mxGeometry>
        </mxCell>
        <mxCell id="9MYYT_YsKxKuT01WDasr-60" value="" style="endArrow=none;html=1;exitX=0.5;exitY=0;exitDx=0;exitDy=0;entryX=1;entryY=1;entryDx=0;entryDy=0;fontFamily=Times New Roman;labelBorderColor=none;labelBackgroundColor=none;fontStyle=1;fontColor=#FF0000;" edge="1" parent="1" source="9MYYT_YsKxKuT01WDasr-41" target="9MYYT_YsKxKuT01WDasr-9">
          <mxGeometry width="50" height="50" relative="1" as="geometry">
            <mxPoint x="355" y="595" as="sourcePoint" />
            <mxPoint x="370" y="460" as="targetPoint" />
          </mxGeometry>
        </mxCell>
        <mxCell id="9MYYT_YsKxKuT01WDasr-61" value="" style="endArrow=none;html=1;exitX=0.5;exitY=0;exitDx=0;exitDy=0;fontFamily=Times New Roman;labelBorderColor=none;labelBackgroundColor=none;fontStyle=1;fontColor=#FF0000;" edge="1" parent="1" source="9MYYT_YsKxKuT01WDasr-37">
          <mxGeometry width="50" height="50" relative="1" as="geometry">
            <mxPoint x="825" y="454" as="sourcePoint" />
            <mxPoint x="840" y="319" as="targetPoint" />
          </mxGeometry>
        </mxCell>
        <mxCell id="9MYYT_YsKxKuT01WDasr-62" value="" style="endArrow=none;html=1;exitX=0.5;exitY=0;exitDx=0;exitDy=0;fontFamily=Times New Roman;labelBorderColor=none;labelBackgroundColor=none;fontStyle=1;fontColor=#FF0000;" edge="1" parent="1" source="9MYYT_YsKxKuT01WDasr-11">
          <mxGeometry width="50" height="50" relative="1" as="geometry">
            <mxPoint x="867.5" y="295" as="sourcePoint" />
            <mxPoint x="882.5" y="160" as="targetPoint" />
          </mxGeometry>
        </mxCell>
        <mxCell id="9MYYT_YsKxKuT01WDasr-63" value="" style="endArrow=none;html=1;exitX=0.75;exitY=0;exitDx=0;exitDy=0;fontFamily=Times New Roman;labelBorderColor=none;labelBackgroundColor=none;fontStyle=1;fontColor=#FF0000;" edge="1" parent="1" source="9MYYT_YsKxKuT01WDasr-11">
          <mxGeometry width="50" height="50" relative="1" as="geometry">
            <mxPoint x="905" y="315" as="sourcePoint" />
            <mxPoint x="920" y="180" as="targetPoint" />
          </mxGeometry>
        </mxCell>
        <mxCell id="9MYYT_YsKxKuT01WDasr-64" value="" style="endArrow=none;html=1;exitX=1;exitY=0.25;exitDx=0;exitDy=0;fontFamily=Times New Roman;labelBorderColor=none;labelBackgroundColor=none;fontStyle=1;fontColor=#FF0000;" edge="1" parent="1" source="9MYYT_YsKxKuT01WDasr-11">
          <mxGeometry width="50" height="50" relative="1" as="geometry">
            <mxPoint x="905" y="385" as="sourcePoint" />
            <mxPoint x="920" y="250" as="targetPoint" />
          </mxGeometry>
        </mxCell>
        <mxCell id="9MYYT_YsKxKuT01WDasr-65" value="" style="endArrow=none;html=1;exitX=1;exitY=0.75;exitDx=0;exitDy=0;fontFamily=Times New Roman;labelBorderColor=none;labelBackgroundColor=none;fontStyle=1;fontColor=#FF0000;" edge="1" parent="1" source="9MYYT_YsKxKuT01WDasr-11">
          <mxGeometry width="50" height="50" relative="1" as="geometry">
            <mxPoint x="905" y="450" as="sourcePoint" />
            <mxPoint x="920" y="315" as="targetPoint" />
          </mxGeometry>
        </mxCell>
        <mxCell id="9MYYT_YsKxKuT01WDasr-66" value="" style="endArrow=none;html=1;exitX=0;exitY=0.5;exitDx=0;exitDy=0;fontFamily=Times New Roman;labelBorderColor=none;labelBackgroundColor=none;fontStyle=1;fontColor=#FF0000;" edge="1" parent="1" source="9MYYT_YsKxKuT01WDasr-36">
          <mxGeometry width="50" height="50" relative="1" as="geometry">
            <mxPoint x="857.5" y="455" as="sourcePoint" />
            <mxPoint x="872.5" y="320" as="targetPoint" />
          </mxGeometry>
        </mxCell>
        <mxCell id="9MYYT_YsKxKuT01WDasr-67" value="" style="endArrow=none;html=1;exitX=1;exitY=0.25;exitDx=0;exitDy=0;fontFamily=Times New Roman;labelBorderColor=none;labelBackgroundColor=none;fontStyle=1;fontColor=#FF0000;" edge="1" parent="1" source="9MYYT_YsKxKuT01WDasr-10">
          <mxGeometry width="50" height="50" relative="1" as="geometry">
            <mxPoint x="915" y="630" as="sourcePoint" />
            <mxPoint x="930" y="500" as="targetPoint" />
          </mxGeometry>
        </mxCell>
        <mxCell id="9MYYT_YsKxKuT01WDasr-68" value="" style="endArrow=none;html=1;exitX=0;exitY=0.5;exitDx=0;exitDy=0;entryX=1;entryY=1;entryDx=0;entryDy=0;fontFamily=Times New Roman;labelBorderColor=none;labelBackgroundColor=none;fontStyle=1;fontColor=#FF0000;" edge="1" parent="1" source="9MYYT_YsKxKuT01WDasr-44" target="9MYYT_YsKxKuT01WDasr-10">
          <mxGeometry width="50" height="50" relative="1" as="geometry">
            <mxPoint x="865" y="615" as="sourcePoint" />
            <mxPoint x="880" y="480" as="targetPoint" />
          </mxGeometry>
        </mxCell>
        <mxCell id="9MYYT_YsKxKuT01WDasr-69" value="" style="endArrow=none;html=1;exitX=1;exitY=0;exitDx=0;exitDy=0;fontFamily=Times New Roman;labelBorderColor=none;labelBackgroundColor=none;fontStyle=1;fontColor=#FF0000;" edge="1" parent="1" source="9MYYT_YsKxKuT01WDasr-8">
          <mxGeometry width="50" height="50" relative="1" as="geometry">
            <mxPoint x="570" y="310" as="sourcePoint" />
            <mxPoint x="620" y="260" as="targetPoint" />
          </mxGeometry>
        </mxCell>
        <mxCell id="9MYYT_YsKxKuT01WDasr-70" value="" style="endArrow=none;html=1;exitX=0.5;exitY=0;exitDx=0;exitDy=0;fontFamily=Times New Roman;labelBorderColor=none;labelBackgroundColor=none;fontStyle=1;fontColor=#FF0000;" edge="1" parent="1" source="9MYYT_YsKxKuT01WDasr-29">
          <mxGeometry width="50" height="50" relative="1" as="geometry">
            <mxPoint x="430" y="370" as="sourcePoint" />
            <mxPoint x="480" y="320" as="targetPoint" />
          </mxGeometry>
        </mxCell>
        <mxCell id="9MYYT_YsKxKuT01WDasr-71" value="" style="endArrow=none;html=1;exitX=0;exitY=0;exitDx=0;exitDy=0;fontFamily=Times New Roman;labelBorderColor=none;labelBackgroundColor=none;fontStyle=1;fontColor=#FF0000;" edge="1" parent="1" source="9MYYT_YsKxKuT01WDasr-8">
          <mxGeometry width="50" height="50" relative="1" as="geometry">
            <mxPoint x="380" y="310" as="sourcePoint" />
            <mxPoint x="430" y="260" as="targetPoint" />
          </mxGeometry>
        </mxCell>
        <mxCell id="9MYYT_YsKxKuT01WDasr-72" value="" style="endArrow=none;html=1;exitX=0.5;exitY=0;exitDx=0;exitDy=0;fontFamily=Times New Roman;labelBorderColor=none;labelBackgroundColor=none;fontStyle=1;fontColor=#FF0000;" edge="1" parent="1" source="9MYYT_YsKxKuT01WDasr-30">
          <mxGeometry width="50" height="50" relative="1" as="geometry">
            <mxPoint x="520" y="370" as="sourcePoint" />
            <mxPoint x="570" y="320" as="targetPoint" />
          </mxGeometry>
        </mxCell>
        <mxCell id="9MYYT_YsKxKuT01WDasr-74" value="" style="endArrow=none;html=1;exitX=1;exitY=0.5;exitDx=0;exitDy=0;fontFamily=Times New Roman;labelBorderColor=none;labelBackgroundColor=none;fontStyle=1;fontColor=#FF0000;" edge="1" parent="1" source="9MYYT_YsKxKuT01WDasr-1">
          <mxGeometry width="50" height="50" relative="1" as="geometry">
            <mxPoint x="280" y="353.5" as="sourcePoint" />
            <mxPoint x="330" y="303.5" as="targetPoint" />
          </mxGeometry>
        </mxCell>
        <mxCell id="9MYYT_YsKxKuT01WDasr-84" value="1" style="edgeLabel;html=1;align=center;verticalAlign=middle;resizable=0;points=[];fontSize=15;fontFamily=Times New Roman;labelBorderColor=none;labelBackgroundColor=none;fontStyle=1;fontColor=#FF0000;" vertex="1" connectable="0" parent="9MYYT_YsKxKuT01WDasr-74">
          <mxGeometry x="-0.5661" y="1" relative="1" as="geometry">
            <mxPoint as="offset" />
          </mxGeometry>
        </mxCell>
        <mxCell id="9MYYT_YsKxKuT01WDasr-75" value="" style="endArrow=none;html=1;exitX=0.433;exitY=0.03;exitDx=0;exitDy=0;exitPerimeter=0;fontFamily=Times New Roman;labelBorderColor=none;labelBackgroundColor=none;fontStyle=1;fontColor=#FF0000;" edge="1" parent="1" source="9MYYT_YsKxKuT01WDasr-9">
          <mxGeometry width="50" height="50" relative="1" as="geometry">
            <mxPoint x="470" y="505" as="sourcePoint" />
            <mxPoint x="520" y="455" as="targetPoint" />
          </mxGeometry>
        </mxCell>
        <mxCell id="9MYYT_YsKxKuT01WDasr-90" value="n" style="edgeLabel;html=1;align=center;verticalAlign=middle;resizable=0;points=[];fontSize=15;fontFamily=Times New Roman;labelBorderColor=none;labelBackgroundColor=none;fontStyle=1;fontColor=#FF0000;" vertex="1" connectable="0" parent="9MYYT_YsKxKuT01WDasr-75">
          <mxGeometry x="-0.5574" relative="1" as="geometry">
            <mxPoint as="offset" />
          </mxGeometry>
        </mxCell>
        <mxCell id="9MYYT_YsKxKuT01WDasr-76" value="" style="endArrow=none;html=1;entryX=0;entryY=0.5;entryDx=0;entryDy=0;fontFamily=Times New Roman;labelBorderColor=none;labelBackgroundColor=none;fontStyle=1;fontColor=#FF0000;" edge="1" parent="1" target="9MYYT_YsKxKuT01WDasr-16">
          <mxGeometry width="50" height="50" relative="1" as="geometry">
            <mxPoint x="570" y="535" as="sourcePoint" />
            <mxPoint x="620" y="490" as="targetPoint" />
          </mxGeometry>
        </mxCell>
        <mxCell id="9MYYT_YsKxKuT01WDasr-91" value="n" style="edgeLabel;html=1;align=center;verticalAlign=middle;resizable=0;points=[];fontSize=15;fontFamily=Times New Roman;labelBorderColor=none;labelBackgroundColor=none;fontStyle=1;fontColor=#FF0000;" vertex="1" connectable="0" parent="9MYYT_YsKxKuT01WDasr-76">
          <mxGeometry x="-0.8099" y="-1" relative="1" as="geometry">
            <mxPoint as="offset" />
          </mxGeometry>
        </mxCell>
        <mxCell id="9MYYT_YsKxKuT01WDasr-77" value="" style="endArrow=none;html=1;exitX=1;exitY=0.5;exitDx=0;exitDy=0;fontFamily=Times New Roman;labelBorderColor=none;labelBackgroundColor=none;fontStyle=1;fontColor=#FF0000;" edge="1" parent="1" source="9MYYT_YsKxKuT01WDasr-12">
          <mxGeometry width="50" height="50" relative="1" as="geometry">
            <mxPoint x="430" y="353.5" as="sourcePoint" />
            <mxPoint x="480" y="303.5" as="targetPoint" />
          </mxGeometry>
        </mxCell>
        <mxCell id="9MYYT_YsKxKuT01WDasr-85" value="n" style="edgeLabel;html=1;align=center;verticalAlign=middle;resizable=0;points=[];fontSize=15;fontFamily=Times New Roman;labelBorderColor=none;labelBackgroundColor=none;fontStyle=1;fontColor=#FF0000;" vertex="1" connectable="0" parent="9MYYT_YsKxKuT01WDasr-77">
          <mxGeometry x="0.5142" relative="1" as="geometry">
            <mxPoint as="offset" />
          </mxGeometry>
        </mxCell>
        <mxCell id="9MYYT_YsKxKuT01WDasr-78" value="" style="endArrow=none;html=1;fontFamily=Times New Roman;labelBorderColor=none;labelBackgroundColor=none;fontStyle=1;fontColor=#FF0000;" edge="1" parent="1" source="9MYYT_YsKxKuT01WDasr-15">
          <mxGeometry width="50" height="50" relative="1" as="geometry">
            <mxPoint x="470" y="370" as="sourcePoint" />
            <mxPoint x="520" y="320" as="targetPoint" />
          </mxGeometry>
        </mxCell>
        <mxCell id="9MYYT_YsKxKuT01WDasr-89" value="1" style="edgeLabel;html=1;align=center;verticalAlign=middle;resizable=0;points=[];fontSize=15;fontFamily=Times New Roman;labelBorderColor=none;labelBackgroundColor=none;fontStyle=1;fontColor=#FF0000;" vertex="1" connectable="0" parent="9MYYT_YsKxKuT01WDasr-78">
          <mxGeometry x="0.7244" y="1" relative="1" as="geometry">
            <mxPoint as="offset" />
          </mxGeometry>
        </mxCell>
        <mxCell id="9MYYT_YsKxKuT01WDasr-79" value="" style="endArrow=none;html=1;exitX=0.5;exitY=0;exitDx=0;exitDy=0;fontFamily=Times New Roman;labelBorderColor=none;labelBackgroundColor=none;fontStyle=1;fontColor=#FF0000;" edge="1" parent="1" source="9MYYT_YsKxKuT01WDasr-13">
          <mxGeometry width="50" height="50" relative="1" as="geometry">
            <mxPoint x="475" y="210" as="sourcePoint" />
            <mxPoint x="525" y="160" as="targetPoint" />
          </mxGeometry>
        </mxCell>
        <mxCell id="9MYYT_YsKxKuT01WDasr-86" value="n" style="edgeLabel;html=1;align=center;verticalAlign=middle;resizable=0;points=[];fontSize=15;fontFamily=Times New Roman;labelBorderColor=none;labelBackgroundColor=none;fontStyle=1;fontColor=#FF0000;" vertex="1" connectable="0" parent="9MYYT_YsKxKuT01WDasr-79">
          <mxGeometry x="0.3061" relative="1" as="geometry">
            <mxPoint as="offset" />
          </mxGeometry>
        </mxCell>
        <mxCell id="9MYYT_YsKxKuT01WDasr-80" value="&lt;font style=&quot;font-size: 15px&quot;&gt;1&lt;/font&gt;" style="endArrow=none;html=1;exitX=0.5;exitY=0;exitDx=0;exitDy=0;entryX=0.5;entryY=1;entryDx=0;entryDy=0;fontFamily=Times New Roman;labelBorderColor=none;labelBackgroundColor=none;fontStyle=1;fontColor=#FF0000;" edge="1" parent="1" source="9MYYT_YsKxKuT01WDasr-8" target="9MYYT_YsKxKuT01WDasr-13">
          <mxGeometry width="50" height="50" relative="1" as="geometry">
            <mxPoint x="475" y="305" as="sourcePoint" />
            <mxPoint x="525" y="255" as="targetPoint" />
          </mxGeometry>
        </mxCell>
        <mxCell id="9MYYT_YsKxKuT01WDasr-81" value="" style="endArrow=none;html=1;exitX=1;exitY=0.5;exitDx=0;exitDy=0;fontFamily=Times New Roman;labelBorderColor=none;labelBackgroundColor=none;fontStyle=1;fontColor=#FF0000;" edge="1" parent="1" source="9MYYT_YsKxKuT01WDasr-8">
          <mxGeometry width="50" height="50" relative="1" as="geometry">
            <mxPoint x="625" y="353.5" as="sourcePoint" />
            <mxPoint x="675" y="304" as="targetPoint" />
          </mxGeometry>
        </mxCell>
        <mxCell id="9MYYT_YsKxKuT01WDasr-87" value="1" style="edgeLabel;html=1;align=center;verticalAlign=middle;resizable=0;points=[];fontSize=15;fontFamily=Times New Roman;labelBorderColor=none;labelBackgroundColor=none;fontStyle=1;fontColor=#FF0000;" vertex="1" connectable="0" parent="9MYYT_YsKxKuT01WDasr-81">
          <mxGeometry x="-0.7863" relative="1" as="geometry">
            <mxPoint as="offset" />
          </mxGeometry>
        </mxCell>
        <mxCell id="9MYYT_YsKxKuT01WDasr-82" value="" style="endArrow=none;html=1;exitX=1;exitY=0.5;exitDx=0;exitDy=0;entryX=0;entryY=0.5;entryDx=0;entryDy=0;fontFamily=Times New Roman;labelBorderColor=none;labelBackgroundColor=none;fontStyle=1;fontColor=#FF0000;" edge="1" parent="1" source="9MYYT_YsKxKuT01WDasr-16" target="9MYYT_YsKxKuT01WDasr-10">
          <mxGeometry width="50" height="50" relative="1" as="geometry">
            <mxPoint x="770" y="580" as="sourcePoint" />
            <mxPoint x="820" y="530" as="targetPoint" />
          </mxGeometry>
        </mxCell>
        <mxCell id="9MYYT_YsKxKuT01WDasr-92" value="1" style="edgeLabel;html=1;align=center;verticalAlign=middle;resizable=0;points=[];fontSize=15;fontFamily=Times New Roman;labelBorderColor=none;labelBackgroundColor=none;fontStyle=1;fontColor=#FF0000;" vertex="1" connectable="0" parent="9MYYT_YsKxKuT01WDasr-82">
          <mxGeometry x="0.4133" y="1" relative="1" as="geometry">
            <mxPoint as="offset" />
          </mxGeometry>
        </mxCell>
        <mxCell id="9MYYT_YsKxKuT01WDasr-83" value="" style="endArrow=none;html=1;exitX=1;exitY=0.5;exitDx=0;exitDy=0;fontFamily=Times New Roman;labelBorderColor=none;labelBackgroundColor=none;fontStyle=1;fontColor=#FF0000;" edge="1" parent="1" source="9MYYT_YsKxKuT01WDasr-14">
          <mxGeometry width="50" height="50" relative="1" as="geometry">
            <mxPoint x="740" y="353.5" as="sourcePoint" />
            <mxPoint x="790" y="303.5" as="targetPoint" />
          </mxGeometry>
        </mxCell>
        <mxCell id="9MYYT_YsKxKuT01WDasr-88" value="n" style="edgeLabel;html=1;align=center;verticalAlign=middle;resizable=0;points=[];fontSize=15;fontFamily=Times New Roman;labelBorderColor=none;labelBackgroundColor=none;fontStyle=1;fontColor=#FF0000;" vertex="1" connectable="0" parent="9MYYT_YsKxKuT01WDasr-83">
          <mxGeometry x="0.3912" relative="1" as="geometry">
            <mxPoint as="offset" />
          </mxGeometry>
        </mxCell>
        <mxCell id="9MYYT_YsKxKuT01WDasr-93" value="ID" style="ellipse;whiteSpace=wrap;html=1;fontStyle=5;fontFamily=Times New Roman;labelBorderColor=none;labelBackgroundColor=none;fillColor=#dae8fc;strokeColor=#6c8ebf;fontColor=#FF0000;" vertex="1" parent="1">
          <mxGeometry x="930" y="480" width="90" height="40" as="geometry" />
        </mxCell>
        <mxCell id="9MYYT_YsKxKuT01WDasr-94" value="Câu hỏi" style="ellipse;whiteSpace=wrap;html=1;fontFamily=Times New Roman;labelBorderColor=none;labelBackgroundColor=none;fillColor=#dae8fc;strokeColor=#6c8ebf;fontStyle=1;fontColor=#FF0000;" vertex="1" parent="1">
          <mxGeometry x="930" y="560" width="90" height="40" as="geometry" />
        </mxCell>
        <mxCell id="9MYYT_YsKxKuT01WDasr-95" value="Câu Hỏi" style="rounded=0;whiteSpace=wrap;html=1;fontFamily=Times New Roman;labelBorderColor=none;labelBackgroundColor=none;fillColor=#dae8fc;strokeColor=#6c8ebf;fontStyle=1;fontColor=#FF0000;" vertex="1" parent="1">
          <mxGeometry x="820" y="520" width="90" height="30" as="geometry" />
        </mxCell>
        <mxCell id="9MYYT_YsKxKuT01WDasr-96" value="Cho" style="rhombus;whiteSpace=wrap;html=1;fontFamily=Times New Roman;labelBorderColor=none;labelBackgroundColor=none;fillColor=#dae8fc;strokeColor=#6c8ebf;fontStyle=1;fontColor=#FF0000;" vertex="1" parent="1">
          <mxGeometry x="675" y="502.5" width="80" height="65" as="geometry" />
        </mxCell>
        <mxCell id="9MYYT_YsKxKuT01WDasr-97" value="Câu trả lời" style="ellipse;whiteSpace=wrap;html=1;fontFamily=Times New Roman;labelBorderColor=none;labelBackgroundColor=none;fillColor=#dae8fc;strokeColor=#6c8ebf;fontStyle=1;fontColor=#FF0000;" vertex="1" parent="1">
          <mxGeometry x="600" y="560" width="90" height="40" as="geometry" />
        </mxCell>
        <mxCell id="9MYYT_YsKxKuT01WDasr-98" value="ID yêu cầu" style="ellipse;whiteSpace=wrap;html=1;fontFamily=Times New Roman;labelBorderColor=none;labelBackgroundColor=none;fillColor=#dae8fc;strokeColor=#6c8ebf;fontStyle=1;fontColor=#FF0000;" vertex="1" parent="1">
          <mxGeometry x="510" y="600" width="90" height="40" as="geometry" />
        </mxCell>
        <mxCell id="9MYYT_YsKxKuT01WDasr-99" value="ID câu hỏi" style="ellipse;whiteSpace=wrap;html=1;fontFamily=Times New Roman;labelBorderColor=none;labelBackgroundColor=none;fillColor=#dae8fc;strokeColor=#6c8ebf;fontStyle=1;fontColor=#FF0000;" vertex="1" parent="1">
          <mxGeometry x="410" y="600" width="90" height="40" as="geometry" />
        </mxCell>
        <mxCell id="9MYYT_YsKxKuT01WDasr-100" value="ID" style="ellipse;whiteSpace=wrap;html=1;fontStyle=5;fontFamily=Times New Roman;labelBorderColor=none;labelBackgroundColor=none;fillColor=#dae8fc;strokeColor=#6c8ebf;fontColor=#FF0000;" vertex="1" parent="1">
          <mxGeometry x="320" y="560" width="90" height="40" as="geometry" />
        </mxCell>
        <mxCell id="9MYYT_YsKxKuT01WDasr-101" value="Câu Trả Lời" style="rounded=0;whiteSpace=wrap;html=1;fontFamily=Times New Roman;labelBorderColor=none;labelBackgroundColor=none;fillColor=#dae8fc;strokeColor=#6c8ebf;fontStyle=1;fontColor=#FF0000;" vertex="1" parent="1">
          <mxGeometry x="480" y="520" width="90" height="30" as="geometry" />
        </mxCell>
        <mxCell id="9MYYT_YsKxKuT01WDasr-102" value="Thuộc" style="rhombus;whiteSpace=wrap;html=1;fontFamily=Times New Roman;labelBorderColor=none;labelBackgroundColor=none;fillColor=#dae8fc;strokeColor=#6c8ebf;fontStyle=1;fontColor=#FF0000;" vertex="1" parent="1">
          <mxGeometry x="480" y="390" width="80" height="65" as="geometry" />
        </mxCell>
        <mxCell id="9MYYT_YsKxKuT01WDasr-103" value="Ngày gửi" style="ellipse;whiteSpace=wrap;html=1;fontFamily=Times New Roman;labelBorderColor=none;labelBackgroundColor=none;fillColor=#dae8fc;strokeColor=#6c8ebf;fontStyle=1;fontColor=#FF0000;" vertex="1" parent="1">
          <mxGeometry x="560" y="353.5" width="90" height="40" as="geometry" />
        </mxCell>
        <mxCell id="9MYYT_YsKxKuT01WDasr-104" value="Của" style="rhombus;whiteSpace=wrap;html=1;fontFamily=Times New Roman;labelBorderColor=none;labelBackgroundColor=none;fillColor=#dae8fc;strokeColor=#6c8ebf;fontStyle=1;fontColor=#FF0000;" vertex="1" parent="1">
          <mxGeometry x="675" y="272.5" width="80" height="65" as="geometry" />
        </mxCell>
        <mxCell id="9MYYT_YsKxKuT01WDasr-105" value="Tình trạng" style="ellipse;whiteSpace=wrap;html=1;fontFamily=Times New Roman;labelBorderColor=none;labelBackgroundColor=none;fillColor=#dae8fc;strokeColor=#6c8ebf;fontStyle=1;fontColor=#FF0000;" vertex="1" parent="1">
          <mxGeometry x="570" y="220" width="90" height="40" as="geometry" />
        </mxCell>
        <mxCell id="9MYYT_YsKxKuT01WDasr-106" value="Thuộc" style="rhombus;whiteSpace=wrap;html=1;fontFamily=Times New Roman;labelBorderColor=none;labelBackgroundColor=none;fillColor=#dae8fc;strokeColor=#6c8ebf;fontStyle=1;fontColor=#FF0000;" vertex="1" parent="1">
          <mxGeometry x="485" y="185" width="80" height="65" as="geometry" />
        </mxCell>
        <mxCell id="9MYYT_YsKxKuT01WDasr-107" value="Yêu Cầu" style="rounded=0;whiteSpace=wrap;html=1;fontFamily=Times New Roman;labelBorderColor=none;labelBackgroundColor=none;fillColor=#dae8fc;strokeColor=#6c8ebf;fontStyle=1;fontColor=#FF0000;" vertex="1" parent="1">
          <mxGeometry x="480" y="290" width="90" height="30" as="geometry" />
        </mxCell>
        <mxCell id="9MYYT_YsKxKuT01WDasr-108" value="ID" style="ellipse;whiteSpace=wrap;html=1;fontStyle=5;fontFamily=Times New Roman;labelBorderColor=none;labelBackgroundColor=none;fillColor=#dae8fc;strokeColor=#6c8ebf;fontColor=#FF0000;" vertex="1" parent="1">
          <mxGeometry x="380" y="220" width="90" height="40" as="geometry" />
        </mxCell>
        <mxCell id="9MYYT_YsKxKuT01WDasr-109" value="ID" style="ellipse;whiteSpace=wrap;html=1;fontStyle=5;fontFamily=Times New Roman;labelBorderColor=none;labelBackgroundColor=none;fillColor=#dae8fc;strokeColor=#6c8ebf;fontColor=#FF0000;" vertex="1" parent="1">
          <mxGeometry x="360" y="40" width="90" height="40" as="geometry" />
        </mxCell>
        <mxCell id="9MYYT_YsKxKuT01WDasr-110" value="Địa chỉ" style="ellipse;whiteSpace=wrap;html=1;fontFamily=Times New Roman;labelBorderColor=none;labelBackgroundColor=none;fillColor=#dae8fc;strokeColor=#6c8ebf;fontStyle=1;fontColor=#FF0000;" vertex="1" parent="1">
          <mxGeometry x="180" y="125" width="90" height="40" as="geometry" />
        </mxCell>
        <mxCell id="9MYYT_YsKxKuT01WDasr-111" value="Tuổi" style="ellipse;whiteSpace=wrap;html=1;fontFamily=Times New Roman;labelBorderColor=none;labelBackgroundColor=none;fillColor=#dae8fc;strokeColor=#6c8ebf;fontStyle=1;fontColor=#FF0000;" vertex="1" parent="1">
          <mxGeometry x="80" y="125" width="90" height="40" as="geometry" />
        </mxCell>
        <mxCell id="9MYYT_YsKxKuT01WDasr-112" value="Số điện thoại" style="ellipse;whiteSpace=wrap;html=1;fontFamily=Times New Roman;labelBorderColor=none;labelBackgroundColor=none;fillColor=#dae8fc;strokeColor=#6c8ebf;fontStyle=1;fontColor=#FF0000;" vertex="1" parent="1">
          <mxGeometry x="10" y="180" width="90" height="40" as="geometry" />
        </mxCell>
        <mxCell id="9MYYT_YsKxKuT01WDasr-113" value="ID" style="ellipse;whiteSpace=wrap;html=1;fontStyle=5;fontFamily=Times New Roman;labelBorderColor=none;labelBackgroundColor=none;fillColor=#dae8fc;strokeColor=#6c8ebf;fontColor=#FF0000;" vertex="1" parent="1">
          <mxGeometry x="10" y="250" width="90" height="40" as="geometry" />
        </mxCell>
        <mxCell id="9MYYT_YsKxKuT01WDasr-114" value="Tên" style="ellipse;whiteSpace=wrap;html=1;fontFamily=Times New Roman;labelBorderColor=none;labelBackgroundColor=none;fillColor=#dae8fc;strokeColor=#6c8ebf;fontStyle=1;fontColor=#FF0000;" vertex="1" parent="1">
          <mxGeometry x="10" y="330" width="90" height="40" as="geometry" />
        </mxCell>
        <mxCell id="9MYYT_YsKxKuT01WDasr-115" value="Password" style="ellipse;whiteSpace=wrap;html=1;fontFamily=Times New Roman;labelBorderColor=none;labelBackgroundColor=none;fillColor=#dae8fc;strokeColor=#6c8ebf;fontStyle=1;fontColor=#FF0000;" vertex="1" parent="1">
          <mxGeometry x="20" y="393.5" width="90" height="40" as="geometry" />
        </mxCell>
      </root>
    </mxGraphModel>
  </diagram>
  <diagram id="Wrg99AJgfHhNVK0mRofN" name="Page-2">
    <mxGraphModel dx="1209" dy="637" grid="1" gridSize="10" guides="1" tooltips="1" connect="1" arrows="1" fold="1" page="1" pageScale="1" pageWidth="1169" pageHeight="827" math="0" shadow="0">
      <root>
        <mxCell id="oSDIgCzuB7HVVvVzlJWJ-0" />
        <mxCell id="oSDIgCzuB7HVVvVzlJWJ-1" parent="oSDIgCzuB7HVVvVzlJWJ-0" />
        <mxCell id="lHFT-cJ2_tgGNmxRRqL1-0" value="Bác Sĩ" style="rounded=0;whiteSpace=wrap;html=1;fontFamily=Times New Roman;labelBorderColor=none;labelBackgroundColor=none;fillColor=#dae8fc;strokeColor=#6c8ebf;fontStyle=1;fontColor=#FF0000;" vertex="1" parent="oSDIgCzuB7HVVvVzlJWJ-1">
          <mxGeometry x="160" y="327.5" width="90" height="30" as="geometry" />
        </mxCell>
        <mxCell id="lHFT-cJ2_tgGNmxRRqL1-1" value="Bác Sĩ - Yêu cầu" style="rounded=0;whiteSpace=wrap;html=1;fontFamily=Times New Roman;labelBorderColor=none;labelBackgroundColor=none;fillColor=#dae8fc;strokeColor=#6c8ebf;fontStyle=1;fontColor=#FF0000;" vertex="1" parent="oSDIgCzuB7HVVvVzlJWJ-1">
          <mxGeometry x="415" y="327.5" width="90" height="30" as="geometry" />
        </mxCell>
        <mxCell id="lHFT-cJ2_tgGNmxRRqL1-2" value="Xét Nghiệm" style="rounded=0;whiteSpace=wrap;html=1;fontFamily=Times New Roman;labelBorderColor=none;labelBackgroundColor=none;fillColor=#dae8fc;strokeColor=#6c8ebf;fontStyle=1;fontColor=#FF0000;" vertex="1" parent="oSDIgCzuB7HVVvVzlJWJ-1">
          <mxGeometry x="570" y="440" width="90" height="30" as="geometry" />
        </mxCell>
        <mxCell id="lHFT-cJ2_tgGNmxRRqL1-3" value="Thuốc" style="rounded=0;whiteSpace=wrap;html=1;fontFamily=Times New Roman;labelBorderColor=none;labelBackgroundColor=none;fillColor=#dae8fc;strokeColor=#6c8ebf;fontStyle=1;fontColor=#FF0000;" vertex="1" parent="oSDIgCzuB7HVVvVzlJWJ-1">
          <mxGeometry x="990" y="327.5" width="90" height="30" as="geometry" />
        </mxCell>
        <mxCell id="lHFT-cJ2_tgGNmxRRqL1-4" value="Điều Trị" style="rounded=0;whiteSpace=wrap;html=1;fontFamily=Times New Roman;labelBorderColor=none;labelBackgroundColor=none;fillColor=#dae8fc;strokeColor=#6c8ebf;fontStyle=1;fontColor=#FF0000;" vertex="1" parent="oSDIgCzuB7HVVvVzlJWJ-1">
          <mxGeometry x="710" y="150" width="90" height="30" as="geometry" />
        </mxCell>
        <mxCell id="lHFT-cJ2_tgGNmxRRqL1-5" value="Kết Luận" style="rounded=0;whiteSpace=wrap;html=1;fontFamily=Times New Roman;labelBorderColor=none;labelBackgroundColor=none;fillColor=#dae8fc;strokeColor=#6c8ebf;fontStyle=1;fontColor=#FF0000;" vertex="1" parent="oSDIgCzuB7HVVvVzlJWJ-1">
          <mxGeometry x="710" y="327.5" width="90" height="30" as="geometry" />
        </mxCell>
        <mxCell id="UDk4OuYs81M5WQIGsjps-0" value="Của" style="rhombus;whiteSpace=wrap;html=1;fontFamily=Times New Roman;labelBorderColor=none;labelBackgroundColor=none;fillColor=#dae8fc;strokeColor=#6c8ebf;fontStyle=1;fontColor=#FF0000;" vertex="1" parent="oSDIgCzuB7HVVvVzlJWJ-1">
          <mxGeometry x="280" y="310" width="80" height="65" as="geometry" />
        </mxCell>
        <mxCell id="UDk4OuYs81M5WQIGsjps-1" value="Cho" style="rhombus;whiteSpace=wrap;html=1;fontFamily=Times New Roman;labelBorderColor=none;labelBackgroundColor=none;fillColor=#dae8fc;strokeColor=#6c8ebf;fontStyle=1;fontColor=#FF0000;" vertex="1" parent="oSDIgCzuB7HVVvVzlJWJ-1">
          <mxGeometry x="710" y="215" width="80" height="65" as="geometry" />
        </mxCell>
        <mxCell id="UDk4OuYs81M5WQIGsjps-2" value="Cho" style="rhombus;whiteSpace=wrap;html=1;fontFamily=Times New Roman;labelBorderColor=none;labelBackgroundColor=none;fillColor=#dae8fc;strokeColor=#6c8ebf;fontStyle=1;fontColor=#FF0000;" vertex="1" parent="oSDIgCzuB7HVVvVzlJWJ-1">
          <mxGeometry x="570" y="310" width="80" height="65" as="geometry" />
        </mxCell>
        <mxCell id="UDk4OuYs81M5WQIGsjps-3" value="Cho" style="rhombus;whiteSpace=wrap;html=1;fontFamily=Times New Roman;labelBorderColor=none;labelBackgroundColor=none;fillColor=#dae8fc;strokeColor=#6c8ebf;fontStyle=1;fontColor=#FF0000;" vertex="1" parent="oSDIgCzuB7HVVvVzlJWJ-1">
          <mxGeometry x="850" y="310" width="80" height="65" as="geometry" />
        </mxCell>
        <mxCell id="UDk4OuYs81M5WQIGsjps-5" value="Cho" style="rhombus;whiteSpace=wrap;html=1;fontFamily=Times New Roman;labelBorderColor=none;labelBackgroundColor=none;fillColor=#dae8fc;strokeColor=#6c8ebf;fontStyle=1;fontColor=#FF0000;" vertex="1" parent="oSDIgCzuB7HVVvVzlJWJ-1">
          <mxGeometry x="420" y="430" width="80" height="65" as="geometry" />
        </mxCell>
        <mxCell id="UDk4OuYs81M5WQIGsjps-8" value="" style="endArrow=none;html=1;labelBackgroundColor=none;strokeWidth=1;fontFamily=Times New Roman;fontSize=15;fontColor=#FF0000;entryX=0;entryY=0.5;entryDx=0;entryDy=0;exitX=1;exitY=0.5;exitDx=0;exitDy=0;" edge="1" parent="oSDIgCzuB7HVVvVzlJWJ-1" source="lHFT-cJ2_tgGNmxRRqL1-0" target="UDk4OuYs81M5WQIGsjps-0">
          <mxGeometry width="50" height="50" relative="1" as="geometry">
            <mxPoint x="460" y="111" as="sourcePoint" />
            <mxPoint x="240" y="217.5" as="targetPoint" />
          </mxGeometry>
        </mxCell>
        <mxCell id="9SwlUtnQ1qe_b_hgyr5f-70" value="1" style="edgeLabel;html=1;align=center;verticalAlign=middle;resizable=0;points=[];fontSize=15;fontFamily=Times New Roman;fontColor=#FF0000;" vertex="1" connectable="0" parent="UDk4OuYs81M5WQIGsjps-8">
          <mxGeometry x="-0.5852" relative="1" as="geometry">
            <mxPoint as="offset" />
          </mxGeometry>
        </mxCell>
        <mxCell id="UDk4OuYs81M5WQIGsjps-9" value="" style="endArrow=none;html=1;labelBackgroundColor=none;strokeWidth=1;fontFamily=Times New Roman;fontSize=15;fontColor=#FF0000;entryX=0;entryY=0.5;entryDx=0;entryDy=0;" edge="1" parent="oSDIgCzuB7HVVvVzlJWJ-1" target="lHFT-cJ2_tgGNmxRRqL1-1">
          <mxGeometry width="50" height="50" relative="1" as="geometry">
            <mxPoint x="360" y="343" as="sourcePoint" />
            <mxPoint x="410" y="263.75" as="targetPoint" />
          </mxGeometry>
        </mxCell>
        <mxCell id="9SwlUtnQ1qe_b_hgyr5f-71" value="n" style="edgeLabel;html=1;align=center;verticalAlign=middle;resizable=0;points=[];fontSize=15;fontFamily=Times New Roman;fontColor=#FF0000;" vertex="1" connectable="0" parent="UDk4OuYs81M5WQIGsjps-9">
          <mxGeometry x="0.4806" y="-1" relative="1" as="geometry">
            <mxPoint as="offset" />
          </mxGeometry>
        </mxCell>
        <mxCell id="UDk4OuYs81M5WQIGsjps-10" value="" style="endArrow=none;html=1;labelBackgroundColor=none;strokeWidth=1;fontFamily=Times New Roman;fontSize=15;fontColor=#FF0000;exitX=0.5;exitY=0;exitDx=0;exitDy=0;entryX=0.5;entryY=1;entryDx=0;entryDy=0;" edge="1" parent="oSDIgCzuB7HVVvVzlJWJ-1" source="UDk4OuYs81M5WQIGsjps-5" target="lHFT-cJ2_tgGNmxRRqL1-1">
          <mxGeometry width="50" height="50" relative="1" as="geometry">
            <mxPoint x="410" y="330" as="sourcePoint" />
            <mxPoint x="460" y="363" as="targetPoint" />
          </mxGeometry>
        </mxCell>
        <mxCell id="9SwlUtnQ1qe_b_hgyr5f-72" value="1" style="edgeLabel;html=1;align=center;verticalAlign=middle;resizable=0;points=[];fontSize=15;fontFamily=Times New Roman;fontColor=#FF0000;" vertex="1" connectable="0" parent="UDk4OuYs81M5WQIGsjps-10">
          <mxGeometry x="0.7241" relative="1" as="geometry">
            <mxPoint as="offset" />
          </mxGeometry>
        </mxCell>
        <mxCell id="UDk4OuYs81M5WQIGsjps-11" value="" style="endArrow=none;html=1;labelBackgroundColor=none;strokeWidth=1;fontFamily=Times New Roman;fontSize=15;fontColor=#FF0000;exitX=0;exitY=0.75;exitDx=0;exitDy=0;entryX=1;entryY=0.5;entryDx=0;entryDy=0;" edge="1" parent="oSDIgCzuB7HVVvVzlJWJ-1" source="lHFT-cJ2_tgGNmxRRqL1-2" target="UDk4OuYs81M5WQIGsjps-5">
          <mxGeometry width="50" height="50" relative="1" as="geometry">
            <mxPoint x="360" y="432.5" as="sourcePoint" />
            <mxPoint x="410" y="382.5" as="targetPoint" />
          </mxGeometry>
        </mxCell>
        <mxCell id="9SwlUtnQ1qe_b_hgyr5f-73" value="n" style="edgeLabel;html=1;align=center;verticalAlign=middle;resizable=0;points=[];fontSize=15;fontFamily=Times New Roman;fontColor=#FF0000;" vertex="1" connectable="0" parent="UDk4OuYs81M5WQIGsjps-11">
          <mxGeometry x="-0.7048" relative="1" as="geometry">
            <mxPoint as="offset" />
          </mxGeometry>
        </mxCell>
        <mxCell id="UDk4OuYs81M5WQIGsjps-12" value="" style="endArrow=none;html=1;labelBackgroundColor=none;strokeWidth=1;fontFamily=Times New Roman;fontSize=15;fontColor=#FF0000;exitX=0;exitY=0.5;exitDx=0;exitDy=0;entryX=1;entryY=0.5;entryDx=0;entryDy=0;" edge="1" parent="oSDIgCzuB7HVVvVzlJWJ-1" source="UDk4OuYs81M5WQIGsjps-2" target="lHFT-cJ2_tgGNmxRRqL1-1">
          <mxGeometry width="50" height="50" relative="1" as="geometry">
            <mxPoint x="460" y="330" as="sourcePoint" />
            <mxPoint x="510" y="280" as="targetPoint" />
          </mxGeometry>
        </mxCell>
        <mxCell id="9SwlUtnQ1qe_b_hgyr5f-74" value="1" style="edgeLabel;html=1;align=center;verticalAlign=middle;resizable=0;points=[];fontSize=15;fontFamily=Times New Roman;fontColor=#FF0000;" vertex="1" connectable="0" parent="UDk4OuYs81M5WQIGsjps-12">
          <mxGeometry x="0.7026" y="-1" relative="1" as="geometry">
            <mxPoint as="offset" />
          </mxGeometry>
        </mxCell>
        <mxCell id="UDk4OuYs81M5WQIGsjps-13" value="" style="endArrow=none;html=1;labelBackgroundColor=none;strokeWidth=1;fontFamily=Times New Roman;fontSize=15;fontColor=#FF0000;entryX=0;entryY=0.5;entryDx=0;entryDy=0;" edge="1" parent="oSDIgCzuB7HVVvVzlJWJ-1" target="lHFT-cJ2_tgGNmxRRqL1-5">
          <mxGeometry width="50" height="50" relative="1" as="geometry">
            <mxPoint x="650" y="343" as="sourcePoint" />
            <mxPoint x="700" y="297.5" as="targetPoint" />
          </mxGeometry>
        </mxCell>
        <mxCell id="9SwlUtnQ1qe_b_hgyr5f-75" value="n" style="edgeLabel;html=1;align=center;verticalAlign=middle;resizable=0;points=[];fontSize=15;fontFamily=Times New Roman;fontColor=#FF0000;" vertex="1" connectable="0" parent="UDk4OuYs81M5WQIGsjps-13">
          <mxGeometry x="0.3727" y="2" relative="1" as="geometry">
            <mxPoint as="offset" />
          </mxGeometry>
        </mxCell>
        <mxCell id="UDk4OuYs81M5WQIGsjps-14" value="" style="endArrow=none;html=1;labelBackgroundColor=none;strokeWidth=1;fontFamily=Times New Roman;fontSize=15;fontColor=#FF0000;entryX=0.5;entryY=1;entryDx=0;entryDy=0;" edge="1" parent="oSDIgCzuB7HVVvVzlJWJ-1" target="UDk4OuYs81M5WQIGsjps-1">
          <mxGeometry width="50" height="50" relative="1" as="geometry">
            <mxPoint x="750" y="327.5" as="sourcePoint" />
            <mxPoint x="800" y="277.5" as="targetPoint" />
          </mxGeometry>
        </mxCell>
        <mxCell id="9SwlUtnQ1qe_b_hgyr5f-80" value="1" style="edgeLabel;html=1;align=center;verticalAlign=middle;resizable=0;points=[];fontSize=15;fontFamily=Times New Roman;fontColor=#FF0000;" vertex="1" connectable="0" parent="UDk4OuYs81M5WQIGsjps-14">
          <mxGeometry x="-0.4035" y="1" relative="1" as="geometry">
            <mxPoint as="offset" />
          </mxGeometry>
        </mxCell>
        <mxCell id="UDk4OuYs81M5WQIGsjps-15" value="" style="endArrow=none;html=1;labelBackgroundColor=none;strokeWidth=1;fontFamily=Times New Roman;fontSize=15;fontColor=#FF0000;exitX=0.5;exitY=0;exitDx=0;exitDy=0;" edge="1" parent="oSDIgCzuB7HVVvVzlJWJ-1" source="UDk4OuYs81M5WQIGsjps-1">
          <mxGeometry width="50" height="50" relative="1" as="geometry">
            <mxPoint x="700" y="232.5" as="sourcePoint" />
            <mxPoint x="750" y="180" as="targetPoint" />
          </mxGeometry>
        </mxCell>
        <mxCell id="9SwlUtnQ1qe_b_hgyr5f-81" value="1" style="edgeLabel;html=1;align=center;verticalAlign=middle;resizable=0;points=[];fontSize=15;fontFamily=Times New Roman;fontColor=#FF0000;" vertex="1" connectable="0" parent="UDk4OuYs81M5WQIGsjps-15">
          <mxGeometry x="0.4095" relative="1" as="geometry">
            <mxPoint as="offset" />
          </mxGeometry>
        </mxCell>
        <mxCell id="UDk4OuYs81M5WQIGsjps-16" value="" style="endArrow=none;html=1;labelBackgroundColor=none;strokeWidth=1;fontFamily=Times New Roman;fontSize=15;fontColor=#FF0000;entryX=0;entryY=0.5;entryDx=0;entryDy=0;exitX=1;exitY=0.5;exitDx=0;exitDy=0;" edge="1" parent="oSDIgCzuB7HVVvVzlJWJ-1" source="lHFT-cJ2_tgGNmxRRqL1-5" target="UDk4OuYs81M5WQIGsjps-3">
          <mxGeometry width="50" height="50" relative="1" as="geometry">
            <mxPoint x="800" y="347.5" as="sourcePoint" />
            <mxPoint x="850" y="297.5" as="targetPoint" />
          </mxGeometry>
        </mxCell>
        <mxCell id="9SwlUtnQ1qe_b_hgyr5f-78" value="1" style="edgeLabel;html=1;align=center;verticalAlign=middle;resizable=0;points=[];fontSize=15;fontFamily=Times New Roman;fontColor=#FF0000;" vertex="1" connectable="0" parent="UDk4OuYs81M5WQIGsjps-16">
          <mxGeometry x="-0.6178" y="-1" relative="1" as="geometry">
            <mxPoint as="offset" />
          </mxGeometry>
        </mxCell>
        <mxCell id="UDk4OuYs81M5WQIGsjps-17" value="" style="endArrow=none;html=1;labelBackgroundColor=none;strokeWidth=1;fontFamily=Times New Roman;fontSize=15;fontColor=#FF0000;entryX=0;entryY=0.5;entryDx=0;entryDy=0;" edge="1" parent="oSDIgCzuB7HVVvVzlJWJ-1" target="lHFT-cJ2_tgGNmxRRqL1-3">
          <mxGeometry width="50" height="50" relative="1" as="geometry">
            <mxPoint x="930" y="343" as="sourcePoint" />
            <mxPoint x="980" y="290" as="targetPoint" />
          </mxGeometry>
        </mxCell>
        <mxCell id="9SwlUtnQ1qe_b_hgyr5f-79" value="1" style="edgeLabel;html=1;align=center;verticalAlign=middle;resizable=0;points=[];fontSize=15;fontFamily=Times New Roman;fontColor=#FF0000;" vertex="1" connectable="0" parent="UDk4OuYs81M5WQIGsjps-17">
          <mxGeometry x="0.4856" y="2" relative="1" as="geometry">
            <mxPoint as="offset" />
          </mxGeometry>
        </mxCell>
        <mxCell id="UDk4OuYs81M5WQIGsjps-19" value="Cho" style="rhombus;whiteSpace=wrap;html=1;fontFamily=Times New Roman;labelBorderColor=none;labelBackgroundColor=none;fillColor=#dae8fc;strokeColor=#6c8ebf;fontStyle=1;fontColor=#FF0000;" vertex="1" parent="oSDIgCzuB7HVVvVzlJWJ-1">
          <mxGeometry x="715" y="430" width="80" height="65" as="geometry" />
        </mxCell>
        <mxCell id="UDk4OuYs81M5WQIGsjps-20" value="" style="endArrow=none;html=1;labelBackgroundColor=none;strokeWidth=1;fontFamily=Times New Roman;fontSize=15;fontColor=#FF0000;exitX=0.5;exitY=0;exitDx=0;exitDy=0;entryX=0.5;entryY=1;entryDx=0;entryDy=0;" edge="1" parent="oSDIgCzuB7HVVvVzlJWJ-1" source="UDk4OuYs81M5WQIGsjps-19" target="lHFT-cJ2_tgGNmxRRqL1-5">
          <mxGeometry width="50" height="50" relative="1" as="geometry">
            <mxPoint x="710" y="407.5" as="sourcePoint" />
            <mxPoint x="760" y="357.5" as="targetPoint" />
          </mxGeometry>
        </mxCell>
        <mxCell id="9SwlUtnQ1qe_b_hgyr5f-77" value="n" style="edgeLabel;html=1;align=center;verticalAlign=middle;resizable=0;points=[];fontSize=15;fontFamily=Times New Roman;fontColor=#FF0000;" vertex="1" connectable="0" parent="UDk4OuYs81M5WQIGsjps-20">
          <mxGeometry x="0.6828" relative="1" as="geometry">
            <mxPoint x="1" as="offset" />
          </mxGeometry>
        </mxCell>
        <mxCell id="UDk4OuYs81M5WQIGsjps-21" value="" style="endArrow=none;html=1;labelBackgroundColor=none;strokeWidth=1;fontFamily=Times New Roman;fontSize=15;fontColor=#FF0000;exitX=1;exitY=0.75;exitDx=0;exitDy=0;entryX=0;entryY=0.5;entryDx=0;entryDy=0;" edge="1" parent="oSDIgCzuB7HVVvVzlJWJ-1" source="lHFT-cJ2_tgGNmxRRqL1-2" target="UDk4OuYs81M5WQIGsjps-19">
          <mxGeometry width="50" height="50" relative="1" as="geometry">
            <mxPoint x="660" y="460" as="sourcePoint" />
            <mxPoint x="710" y="463" as="targetPoint" />
          </mxGeometry>
        </mxCell>
        <mxCell id="9SwlUtnQ1qe_b_hgyr5f-76" value="n" style="edgeLabel;html=1;align=center;verticalAlign=middle;resizable=0;points=[];fontSize=15;fontFamily=Times New Roman;fontColor=#FF0000;" vertex="1" connectable="0" parent="UDk4OuYs81M5WQIGsjps-21">
          <mxGeometry x="-0.6" y="1" relative="1" as="geometry">
            <mxPoint y="1" as="offset" />
          </mxGeometry>
        </mxCell>
        <mxCell id="9SwlUtnQ1qe_b_hgyr5f-0" value="Địa chỉ" style="ellipse;whiteSpace=wrap;html=1;fontFamily=Times New Roman;labelBorderColor=none;labelBackgroundColor=none;fillColor=#dae8fc;strokeColor=#6c8ebf;fontStyle=1;fontColor=#FF0000;" vertex="1" parent="oSDIgCzuB7HVVvVzlJWJ-1">
          <mxGeometry x="140" y="160" width="90" height="40" as="geometry" />
        </mxCell>
        <mxCell id="9SwlUtnQ1qe_b_hgyr5f-1" value="Số điện thoại" style="ellipse;whiteSpace=wrap;html=1;fontFamily=Times New Roman;labelBorderColor=none;labelBackgroundColor=none;fillColor=#dae8fc;strokeColor=#6c8ebf;fontStyle=1;fontColor=#FF0000;" vertex="1" parent="oSDIgCzuB7HVVvVzlJWJ-1">
          <mxGeometry x="40" y="160" width="90" height="40" as="geometry" />
        </mxCell>
        <mxCell id="9SwlUtnQ1qe_b_hgyr5f-2" value="Tuổi" style="ellipse;whiteSpace=wrap;html=1;fontFamily=Times New Roman;labelBorderColor=none;labelBackgroundColor=none;fillColor=#dae8fc;strokeColor=#6c8ebf;fontStyle=1;fontColor=#FF0000;" vertex="1" parent="oSDIgCzuB7HVVvVzlJWJ-1">
          <mxGeometry x="40" y="215" width="90" height="40" as="geometry" />
        </mxCell>
        <mxCell id="9SwlUtnQ1qe_b_hgyr5f-3" value="Tên" style="ellipse;whiteSpace=wrap;html=1;fontFamily=Times New Roman;labelBorderColor=none;labelBackgroundColor=none;fillColor=#dae8fc;strokeColor=#6c8ebf;fontStyle=1;fontColor=#FF0000;" vertex="1" parent="oSDIgCzuB7HVVvVzlJWJ-1">
          <mxGeometry x="40" y="270" width="90" height="40" as="geometry" />
        </mxCell>
        <mxCell id="9SwlUtnQ1qe_b_hgyr5f-4" value="Chuyên môn" style="ellipse;whiteSpace=wrap;html=1;fontFamily=Times New Roman;labelBorderColor=none;labelBackgroundColor=none;fillColor=#dae8fc;strokeColor=#6c8ebf;fontStyle=1;fontColor=#FF0000;" vertex="1" parent="oSDIgCzuB7HVVvVzlJWJ-1">
          <mxGeometry x="40" y="322.5" width="90" height="40" as="geometry" />
        </mxCell>
        <mxCell id="9SwlUtnQ1qe_b_hgyr5f-5" value="ID" style="ellipse;whiteSpace=wrap;html=1;fontFamily=Times New Roman;labelBorderColor=none;labelBackgroundColor=none;fillColor=#dae8fc;strokeColor=#6c8ebf;fontStyle=1;fontColor=#FF0000;" vertex="1" parent="oSDIgCzuB7HVVvVzlJWJ-1">
          <mxGeometry x="40" y="375" width="90" height="40" as="geometry" />
        </mxCell>
        <mxCell id="9SwlUtnQ1qe_b_hgyr5f-6" value="Username" style="ellipse;whiteSpace=wrap;html=1;fontFamily=Times New Roman;labelBorderColor=none;labelBackgroundColor=none;fillColor=#dae8fc;strokeColor=#6c8ebf;fontStyle=1;fontColor=#FF0000;" vertex="1" parent="oSDIgCzuB7HVVvVzlJWJ-1">
          <mxGeometry x="40" y="430" width="90" height="40" as="geometry" />
        </mxCell>
        <mxCell id="9SwlUtnQ1qe_b_hgyr5f-7" value="Password" style="ellipse;whiteSpace=wrap;html=1;fontFamily=Times New Roman;labelBorderColor=none;labelBackgroundColor=none;fillColor=#dae8fc;strokeColor=#6c8ebf;fontStyle=1;fontColor=#FF0000;" vertex="1" parent="oSDIgCzuB7HVVvVzlJWJ-1">
          <mxGeometry x="40" y="480" width="90" height="40" as="geometry" />
        </mxCell>
        <mxCell id="9SwlUtnQ1qe_b_hgyr5f-8" value="Emaiil" style="ellipse;whiteSpace=wrap;html=1;fontFamily=Times New Roman;labelBorderColor=none;labelBackgroundColor=none;fillColor=#dae8fc;strokeColor=#6c8ebf;fontStyle=1;fontColor=#FF0000;" vertex="1" parent="oSDIgCzuB7HVVvVzlJWJ-1">
          <mxGeometry x="140" y="480" width="90" height="40" as="geometry" />
        </mxCell>
        <mxCell id="9SwlUtnQ1qe_b_hgyr5f-9" value="ID Bác sĩ" style="ellipse;whiteSpace=wrap;html=1;fontFamily=Times New Roman;labelBorderColor=none;labelBackgroundColor=none;fillColor=#dae8fc;strokeColor=#6c8ebf;fontStyle=1;fontColor=#FF0000;" vertex="1" parent="oSDIgCzuB7HVVvVzlJWJ-1">
          <mxGeometry x="450" y="110" width="90" height="40" as="geometry" />
        </mxCell>
        <mxCell id="9SwlUtnQ1qe_b_hgyr5f-10" value="Ghi chú" style="ellipse;whiteSpace=wrap;html=1;fontFamily=Times New Roman;labelBorderColor=none;labelBackgroundColor=none;fillColor=#dae8fc;strokeColor=#6c8ebf;fontStyle=1;fontColor=#FF0000;" vertex="1" parent="oSDIgCzuB7HVVvVzlJWJ-1">
          <mxGeometry x="350" y="120" width="90" height="40" as="geometry" />
        </mxCell>
        <mxCell id="9SwlUtnQ1qe_b_hgyr5f-11" value="ID Yêu cầu" style="ellipse;whiteSpace=wrap;html=1;fontFamily=Times New Roman;labelBorderColor=none;labelBackgroundColor=none;fillColor=#dae8fc;strokeColor=#6c8ebf;fontStyle=1;fontColor=#FF0000;" vertex="1" parent="oSDIgCzuB7HVVvVzlJWJ-1">
          <mxGeometry x="300" y="170" width="90" height="40" as="geometry" />
        </mxCell>
        <mxCell id="9SwlUtnQ1qe_b_hgyr5f-12" value="Ngày nhận" style="ellipse;whiteSpace=wrap;html=1;fontFamily=Times New Roman;labelBorderColor=none;labelBackgroundColor=none;fillColor=#dae8fc;strokeColor=#6c8ebf;fontStyle=1;fontColor=#FF0000;" vertex="1" parent="oSDIgCzuB7HVVvVzlJWJ-1">
          <mxGeometry x="530" y="145" width="90" height="40" as="geometry" />
        </mxCell>
        <mxCell id="9SwlUtnQ1qe_b_hgyr5f-13" value="Tình trạng" style="ellipse;whiteSpace=wrap;html=1;fontFamily=Times New Roman;labelBorderColor=none;labelBackgroundColor=none;fillColor=#dae8fc;strokeColor=#6c8ebf;fontStyle=1;fontColor=#FF0000;" vertex="1" parent="oSDIgCzuB7HVVvVzlJWJ-1">
          <mxGeometry x="550" y="210" width="90" height="40" as="geometry" />
        </mxCell>
        <mxCell id="9SwlUtnQ1qe_b_hgyr5f-14" value="ID" style="ellipse;whiteSpace=wrap;html=1;fontFamily=Times New Roman;labelBorderColor=none;labelBackgroundColor=none;fillColor=#dae8fc;strokeColor=#6c8ebf;fontStyle=1;fontColor=#FF0000;" vertex="1" parent="oSDIgCzuB7HVVvVzlJWJ-1">
          <mxGeometry x="300" y="227.5" width="90" height="40" as="geometry" />
        </mxCell>
        <mxCell id="9SwlUtnQ1qe_b_hgyr5f-15" value="" style="endArrow=none;html=1;labelBackgroundColor=none;strokeWidth=1;fontFamily=Times New Roman;fontSize=15;fontColor=#FF0000;exitX=0.5;exitY=0;exitDx=0;exitDy=0;" edge="1" parent="oSDIgCzuB7HVVvVzlJWJ-1" source="lHFT-cJ2_tgGNmxRRqL1-0">
          <mxGeometry width="50" height="50" relative="1" as="geometry">
            <mxPoint x="140" y="250" as="sourcePoint" />
            <mxPoint x="190" y="200" as="targetPoint" />
          </mxGeometry>
        </mxCell>
        <mxCell id="9SwlUtnQ1qe_b_hgyr5f-16" value="" style="endArrow=none;html=1;labelBackgroundColor=none;strokeWidth=1;fontFamily=Times New Roman;fontSize=15;fontColor=#FF0000;entryX=1;entryY=0.5;entryDx=0;entryDy=0;exitX=0.389;exitY=-0.03;exitDx=0;exitDy=0;exitPerimeter=0;" edge="1" parent="oSDIgCzuB7HVVvVzlJWJ-1" source="lHFT-cJ2_tgGNmxRRqL1-0" target="9SwlUtnQ1qe_b_hgyr5f-1">
          <mxGeometry width="50" height="50" relative="1" as="geometry">
            <mxPoint x="192" y="330" as="sourcePoint" />
            <mxPoint x="230" y="277.5" as="targetPoint" />
          </mxGeometry>
        </mxCell>
        <mxCell id="9SwlUtnQ1qe_b_hgyr5f-17" value="" style="endArrow=none;html=1;labelBackgroundColor=none;strokeWidth=1;fontFamily=Times New Roman;fontSize=15;fontColor=#FF0000;exitX=0.25;exitY=0;exitDx=0;exitDy=0;entryX=1;entryY=0.5;entryDx=0;entryDy=0;" edge="1" parent="oSDIgCzuB7HVVvVzlJWJ-1" source="lHFT-cJ2_tgGNmxRRqL1-0" target="9SwlUtnQ1qe_b_hgyr5f-2">
          <mxGeometry width="50" height="50" relative="1" as="geometry">
            <mxPoint x="180" y="320" as="sourcePoint" />
            <mxPoint x="130" y="240" as="targetPoint" />
          </mxGeometry>
        </mxCell>
        <mxCell id="9SwlUtnQ1qe_b_hgyr5f-18" value="" style="endArrow=none;html=1;labelBackgroundColor=none;strokeWidth=1;fontFamily=Times New Roman;fontSize=15;fontColor=#FF0000;exitX=0.5;exitY=0;exitDx=0;exitDy=0;entryX=0.547;entryY=0.963;entryDx=0;entryDy=0;entryPerimeter=0;" edge="1" parent="oSDIgCzuB7HVVvVzlJWJ-1" source="9SwlUtnQ1qe_b_hgyr5f-8" target="lHFT-cJ2_tgGNmxRRqL1-0">
          <mxGeometry width="50" height="50" relative="1" as="geometry">
            <mxPoint x="170" y="407.5" as="sourcePoint" />
            <mxPoint x="220" y="357.5" as="targetPoint" />
          </mxGeometry>
        </mxCell>
        <mxCell id="9SwlUtnQ1qe_b_hgyr5f-19" value="" style="endArrow=none;html=1;labelBackgroundColor=none;strokeWidth=1;fontFamily=Times New Roman;fontSize=15;fontColor=#FF0000;exitX=1;exitY=0;exitDx=0;exitDy=0;" edge="1" parent="oSDIgCzuB7HVVvVzlJWJ-1" source="9SwlUtnQ1qe_b_hgyr5f-7">
          <mxGeometry width="50" height="50" relative="1" as="geometry">
            <mxPoint x="150" y="407.5" as="sourcePoint" />
            <mxPoint x="200" y="357.5" as="targetPoint" />
          </mxGeometry>
        </mxCell>
        <mxCell id="9SwlUtnQ1qe_b_hgyr5f-20" value="" style="endArrow=none;html=1;labelBackgroundColor=none;strokeWidth=1;fontFamily=Times New Roman;fontSize=15;fontColor=#FF0000;exitX=1;exitY=0;exitDx=0;exitDy=0;" edge="1" parent="oSDIgCzuB7HVVvVzlJWJ-1" source="9SwlUtnQ1qe_b_hgyr5f-6">
          <mxGeometry width="50" height="50" relative="1" as="geometry">
            <mxPoint x="140" y="407.5" as="sourcePoint" />
            <mxPoint x="190" y="357.5" as="targetPoint" />
          </mxGeometry>
        </mxCell>
        <mxCell id="9SwlUtnQ1qe_b_hgyr5f-21" value="" style="endArrow=none;html=1;labelBackgroundColor=none;strokeWidth=1;fontFamily=Times New Roman;fontSize=15;fontColor=#FF0000;exitX=0.937;exitY=0.268;exitDx=0;exitDy=0;exitPerimeter=0;" edge="1" parent="oSDIgCzuB7HVVvVzlJWJ-1" source="9SwlUtnQ1qe_b_hgyr5f-5">
          <mxGeometry width="50" height="50" relative="1" as="geometry">
            <mxPoint x="120" y="407.5" as="sourcePoint" />
            <mxPoint x="170" y="357.5" as="targetPoint" />
          </mxGeometry>
        </mxCell>
        <mxCell id="9SwlUtnQ1qe_b_hgyr5f-22" value="" style="endArrow=none;html=1;labelBackgroundColor=none;strokeWidth=1;fontFamily=Times New Roman;fontSize=15;fontColor=#FF0000;exitX=1;exitY=0.5;exitDx=0;exitDy=0;" edge="1" parent="oSDIgCzuB7HVVvVzlJWJ-1" source="9SwlUtnQ1qe_b_hgyr5f-4">
          <mxGeometry width="50" height="50" relative="1" as="geometry">
            <mxPoint x="110" y="390" as="sourcePoint" />
            <mxPoint x="160" y="340" as="targetPoint" />
          </mxGeometry>
        </mxCell>
        <mxCell id="9SwlUtnQ1qe_b_hgyr5f-23" value="" style="endArrow=none;html=1;labelBackgroundColor=none;strokeWidth=1;fontFamily=Times New Roman;fontSize=15;fontColor=#FF0000;exitX=0;exitY=0;exitDx=0;exitDy=0;" edge="1" parent="oSDIgCzuB7HVVvVzlJWJ-1" source="lHFT-cJ2_tgGNmxRRqL1-0">
          <mxGeometry width="50" height="50" relative="1" as="geometry">
            <mxPoint x="80" y="340" as="sourcePoint" />
            <mxPoint x="130" y="290" as="targetPoint" />
          </mxGeometry>
        </mxCell>
        <mxCell id="9SwlUtnQ1qe_b_hgyr5f-24" value="" style="endArrow=none;html=1;labelBackgroundColor=none;strokeWidth=1;fontFamily=Times New Roman;fontSize=15;fontColor=#FF0000;entryX=0;entryY=0.5;entryDx=0;entryDy=0;" edge="1" parent="oSDIgCzuB7HVVvVzlJWJ-1" target="9SwlUtnQ1qe_b_hgyr5f-13">
          <mxGeometry width="50" height="50" relative="1" as="geometry">
            <mxPoint x="490" y="327.5" as="sourcePoint" />
            <mxPoint x="540" y="277.5" as="targetPoint" />
          </mxGeometry>
        </mxCell>
        <mxCell id="9SwlUtnQ1qe_b_hgyr5f-25" value="" style="endArrow=none;html=1;labelBackgroundColor=none;strokeWidth=1;fontFamily=Times New Roman;fontSize=15;fontColor=#FF0000;exitX=0.75;exitY=0;exitDx=0;exitDy=0;entryX=0.241;entryY=0.921;entryDx=0;entryDy=0;entryPerimeter=0;" edge="1" parent="oSDIgCzuB7HVVvVzlJWJ-1" source="lHFT-cJ2_tgGNmxRRqL1-1" target="9SwlUtnQ1qe_b_hgyr5f-12">
          <mxGeometry width="50" height="50" relative="1" as="geometry">
            <mxPoint x="460" y="317.5" as="sourcePoint" />
            <mxPoint x="510" y="267.5" as="targetPoint" />
          </mxGeometry>
        </mxCell>
        <mxCell id="9SwlUtnQ1qe_b_hgyr5f-26" value="" style="endArrow=none;html=1;labelBackgroundColor=none;strokeWidth=1;fontFamily=Times New Roman;fontSize=15;fontColor=#FF0000;exitX=0.588;exitY=0;exitDx=0;exitDy=0;exitPerimeter=0;" edge="1" parent="oSDIgCzuB7HVVvVzlJWJ-1" source="lHFT-cJ2_tgGNmxRRqL1-1" target="9SwlUtnQ1qe_b_hgyr5f-9">
          <mxGeometry width="50" height="50" relative="1" as="geometry">
            <mxPoint x="435" y="272.5" as="sourcePoint" />
            <mxPoint x="485" y="222.5" as="targetPoint" />
          </mxGeometry>
        </mxCell>
        <mxCell id="9SwlUtnQ1qe_b_hgyr5f-27" value="" style="endArrow=none;html=1;labelBackgroundColor=none;strokeWidth=1;fontFamily=Times New Roman;fontSize=15;fontColor=#FF0000;exitX=0.5;exitY=0;exitDx=0;exitDy=0;" edge="1" parent="oSDIgCzuB7HVVvVzlJWJ-1" source="lHFT-cJ2_tgGNmxRRqL1-1" target="9SwlUtnQ1qe_b_hgyr5f-10">
          <mxGeometry width="50" height="50" relative="1" as="geometry">
            <mxPoint x="400" y="227.5" as="sourcePoint" />
            <mxPoint x="450" y="177.5" as="targetPoint" />
          </mxGeometry>
        </mxCell>
        <mxCell id="9SwlUtnQ1qe_b_hgyr5f-28" value="" style="endArrow=none;html=1;labelBackgroundColor=none;strokeWidth=1;fontFamily=Times New Roman;fontSize=15;fontColor=#FF0000;exitX=0.331;exitY=0.03;exitDx=0;exitDy=0;exitPerimeter=0;entryX=1;entryY=0.5;entryDx=0;entryDy=0;" edge="1" parent="oSDIgCzuB7HVVvVzlJWJ-1" source="lHFT-cJ2_tgGNmxRRqL1-1" target="9SwlUtnQ1qe_b_hgyr5f-11">
          <mxGeometry width="50" height="50" relative="1" as="geometry">
            <mxPoint x="370" y="280" as="sourcePoint" />
            <mxPoint x="420" y="230" as="targetPoint" />
          </mxGeometry>
        </mxCell>
        <mxCell id="9SwlUtnQ1qe_b_hgyr5f-29" value="" style="endArrow=none;html=1;labelBackgroundColor=none;strokeWidth=1;fontFamily=Times New Roman;fontSize=15;fontColor=#FF0000;exitX=0.148;exitY=-0.03;exitDx=0;exitDy=0;exitPerimeter=0;entryX=1;entryY=0.5;entryDx=0;entryDy=0;" edge="1" parent="oSDIgCzuB7HVVvVzlJWJ-1" source="lHFT-cJ2_tgGNmxRRqL1-1" target="9SwlUtnQ1qe_b_hgyr5f-14">
          <mxGeometry width="50" height="50" relative="1" as="geometry">
            <mxPoint x="345" y="305" as="sourcePoint" />
            <mxPoint x="395" y="255" as="targetPoint" />
          </mxGeometry>
        </mxCell>
        <mxCell id="9SwlUtnQ1qe_b_hgyr5f-30" value="ID Kết luận" style="ellipse;whiteSpace=wrap;html=1;fontFamily=Times New Roman;labelBorderColor=none;labelBackgroundColor=none;fillColor=#dae8fc;strokeColor=#6c8ebf;fontStyle=1;fontColor=#FF0000;" vertex="1" parent="oSDIgCzuB7HVVvVzlJWJ-1">
          <mxGeometry x="560" y="60" width="90" height="40" as="geometry" />
        </mxCell>
        <mxCell id="9SwlUtnQ1qe_b_hgyr5f-31" value="Tên bệnh điều trị" style="ellipse;whiteSpace=wrap;html=1;fontFamily=Times New Roman;labelBorderColor=none;labelBackgroundColor=none;fillColor=#dae8fc;strokeColor=#6c8ebf;fontStyle=1;fontColor=#FF0000;" vertex="1" parent="oSDIgCzuB7HVVvVzlJWJ-1">
          <mxGeometry x="630" y="30" width="90" height="40" as="geometry" />
        </mxCell>
        <mxCell id="9SwlUtnQ1qe_b_hgyr5f-32" value="Địa điểm" style="ellipse;whiteSpace=wrap;html=1;fontFamily=Times New Roman;labelBorderColor=none;labelBackgroundColor=none;fillColor=#dae8fc;strokeColor=#6c8ebf;fontStyle=1;fontColor=#FF0000;" vertex="1" parent="oSDIgCzuB7HVVvVzlJWJ-1">
          <mxGeometry x="715" y="10" width="90" height="40" as="geometry" />
        </mxCell>
        <mxCell id="9SwlUtnQ1qe_b_hgyr5f-33" value="Thời gian bắt đầu" style="ellipse;whiteSpace=wrap;html=1;fontFamily=Times New Roman;labelBorderColor=none;labelBackgroundColor=none;fillColor=#dae8fc;strokeColor=#6c8ebf;fontStyle=1;fontColor=#FF0000;" vertex="1" parent="oSDIgCzuB7HVVvVzlJWJ-1">
          <mxGeometry x="810" y="20" width="90" height="40" as="geometry" />
        </mxCell>
        <mxCell id="9SwlUtnQ1qe_b_hgyr5f-34" value="Thời gian kết thúc" style="ellipse;whiteSpace=wrap;html=1;fontFamily=Times New Roman;labelBorderColor=none;labelBackgroundColor=none;fillColor=#dae8fc;strokeColor=#6c8ebf;fontStyle=1;fontColor=#FF0000;" vertex="1" parent="oSDIgCzuB7HVVvVzlJWJ-1">
          <mxGeometry x="890" y="50" width="90" height="40" as="geometry" />
        </mxCell>
        <mxCell id="9SwlUtnQ1qe_b_hgyr5f-35" value="ID" style="ellipse;whiteSpace=wrap;html=1;fontFamily=Times New Roman;labelBorderColor=none;labelBackgroundColor=none;fillColor=#dae8fc;strokeColor=#6c8ebf;fontStyle=1;fontColor=#FF0000;" vertex="1" parent="oSDIgCzuB7HVVvVzlJWJ-1">
          <mxGeometry x="900" y="100" width="90" height="40" as="geometry" />
        </mxCell>
        <mxCell id="9SwlUtnQ1qe_b_hgyr5f-36" value="" style="endArrow=none;html=1;labelBackgroundColor=none;strokeWidth=1;fontFamily=Times New Roman;fontSize=15;fontColor=#FF0000;entryX=0;entryY=0.5;entryDx=0;entryDy=0;" edge="1" parent="oSDIgCzuB7HVVvVzlJWJ-1" target="9SwlUtnQ1qe_b_hgyr5f-35">
          <mxGeometry width="50" height="50" relative="1" as="geometry">
            <mxPoint x="800" y="165" as="sourcePoint" />
            <mxPoint x="850" y="115" as="targetPoint" />
          </mxGeometry>
        </mxCell>
        <mxCell id="9SwlUtnQ1qe_b_hgyr5f-37" value="" style="endArrow=none;html=1;labelBackgroundColor=none;strokeWidth=1;fontFamily=Times New Roman;fontSize=15;fontColor=#FF0000;entryX=-0.021;entryY=0.711;entryDx=0;entryDy=0;entryPerimeter=0;" edge="1" parent="oSDIgCzuB7HVVvVzlJWJ-1" target="9SwlUtnQ1qe_b_hgyr5f-34">
          <mxGeometry width="50" height="50" relative="1" as="geometry">
            <mxPoint x="800" y="155" as="sourcePoint" />
            <mxPoint x="850" y="105" as="targetPoint" />
          </mxGeometry>
        </mxCell>
        <mxCell id="9SwlUtnQ1qe_b_hgyr5f-38" value="" style="endArrow=none;html=1;labelBackgroundColor=none;strokeWidth=1;fontFamily=Times New Roman;fontSize=15;fontColor=#FF0000;entryX=0;entryY=1;entryDx=0;entryDy=0;" edge="1" parent="oSDIgCzuB7HVVvVzlJWJ-1" target="9SwlUtnQ1qe_b_hgyr5f-33">
          <mxGeometry width="50" height="50" relative="1" as="geometry">
            <mxPoint x="780" y="150" as="sourcePoint" />
            <mxPoint x="830" y="100" as="targetPoint" />
          </mxGeometry>
        </mxCell>
        <mxCell id="9SwlUtnQ1qe_b_hgyr5f-39" value="" style="endArrow=none;html=1;labelBackgroundColor=none;strokeWidth=1;fontFamily=Times New Roman;fontSize=15;fontColor=#FF0000;exitX=0.5;exitY=1;exitDx=0;exitDy=0;entryX=0.5;entryY=0;entryDx=0;entryDy=0;" edge="1" parent="oSDIgCzuB7HVVvVzlJWJ-1" source="9SwlUtnQ1qe_b_hgyr5f-32" target="lHFT-cJ2_tgGNmxRRqL1-4">
          <mxGeometry width="50" height="50" relative="1" as="geometry">
            <mxPoint x="540" y="370" as="sourcePoint" />
            <mxPoint x="590" y="320" as="targetPoint" />
          </mxGeometry>
        </mxCell>
        <mxCell id="9SwlUtnQ1qe_b_hgyr5f-40" value="" style="endArrow=none;html=1;labelBackgroundColor=none;strokeWidth=1;fontFamily=Times New Roman;fontSize=15;fontColor=#FF0000;exitX=0.25;exitY=0;exitDx=0;exitDy=0;" edge="1" parent="oSDIgCzuB7HVVvVzlJWJ-1" source="lHFT-cJ2_tgGNmxRRqL1-4">
          <mxGeometry width="50" height="50" relative="1" as="geometry">
            <mxPoint x="665" y="120" as="sourcePoint" />
            <mxPoint x="715" y="70" as="targetPoint" />
          </mxGeometry>
        </mxCell>
        <mxCell id="9SwlUtnQ1qe_b_hgyr5f-41" value="" style="endArrow=none;html=1;labelBackgroundColor=none;strokeWidth=1;fontFamily=Times New Roman;fontSize=15;fontColor=#FF0000;exitX=0;exitY=0.25;exitDx=0;exitDy=0;entryX=0.5;entryY=1;entryDx=0;entryDy=0;" edge="1" parent="oSDIgCzuB7HVVvVzlJWJ-1" source="lHFT-cJ2_tgGNmxRRqL1-4" target="9SwlUtnQ1qe_b_hgyr5f-30">
          <mxGeometry width="50" height="50" relative="1" as="geometry">
            <mxPoint x="630" y="155" as="sourcePoint" />
            <mxPoint x="680" y="105" as="targetPoint" />
          </mxGeometry>
        </mxCell>
        <mxCell id="9SwlUtnQ1qe_b_hgyr5f-42" value="Số lượng" style="ellipse;whiteSpace=wrap;html=1;fontFamily=Times New Roman;labelBorderColor=none;labelBackgroundColor=none;fillColor=#dae8fc;strokeColor=#6c8ebf;fontStyle=1;fontColor=#FF0000;" vertex="1" parent="oSDIgCzuB7HVVvVzlJWJ-1">
          <mxGeometry x="900" y="240" width="90" height="40" as="geometry" />
        </mxCell>
        <mxCell id="9SwlUtnQ1qe_b_hgyr5f-43" value="Tên thuốc" style="ellipse;whiteSpace=wrap;html=1;fontFamily=Times New Roman;labelBorderColor=none;labelBackgroundColor=none;fillColor=#dae8fc;strokeColor=#6c8ebf;fontStyle=1;fontColor=#FF0000;" vertex="1" parent="oSDIgCzuB7HVVvVzlJWJ-1">
          <mxGeometry x="1000" y="240" width="90" height="40" as="geometry" />
        </mxCell>
        <mxCell id="9SwlUtnQ1qe_b_hgyr5f-44" value="ID Kết luận" style="ellipse;whiteSpace=wrap;html=1;fontFamily=Times New Roman;labelBorderColor=none;labelBackgroundColor=none;fillColor=#dae8fc;strokeColor=#6c8ebf;fontStyle=1;fontColor=#FF0000;" vertex="1" parent="oSDIgCzuB7HVVvVzlJWJ-1">
          <mxGeometry x="1059" y="280" width="90" height="40" as="geometry" />
        </mxCell>
        <mxCell id="9SwlUtnQ1qe_b_hgyr5f-45" value="ID" style="ellipse;whiteSpace=wrap;html=1;fontFamily=Times New Roman;labelBorderColor=none;labelBackgroundColor=none;fillColor=#dae8fc;strokeColor=#6c8ebf;fontStyle=1;fontColor=#FF0000;" vertex="1" parent="oSDIgCzuB7HVVvVzlJWJ-1">
          <mxGeometry x="1059" y="362.5" width="90" height="40" as="geometry" />
        </mxCell>
        <mxCell id="9SwlUtnQ1qe_b_hgyr5f-46" value="Cách dùng" style="ellipse;whiteSpace=wrap;html=1;fontFamily=Times New Roman;labelBorderColor=none;labelBackgroundColor=none;fillColor=#dae8fc;strokeColor=#6c8ebf;fontStyle=1;fontColor=#FF0000;" vertex="1" parent="oSDIgCzuB7HVVvVzlJWJ-1">
          <mxGeometry x="1000" y="402.5" width="90" height="40" as="geometry" />
        </mxCell>
        <mxCell id="9SwlUtnQ1qe_b_hgyr5f-47" value="ĐVT" style="ellipse;whiteSpace=wrap;html=1;fontFamily=Times New Roman;labelBorderColor=none;labelBackgroundColor=none;fillColor=#dae8fc;strokeColor=#6c8ebf;fontStyle=1;fontColor=#FF0000;" vertex="1" parent="oSDIgCzuB7HVVvVzlJWJ-1">
          <mxGeometry x="900" y="402.5" width="90" height="40" as="geometry" />
        </mxCell>
        <mxCell id="9SwlUtnQ1qe_b_hgyr5f-48" value="" style="endArrow=none;html=1;labelBackgroundColor=none;strokeWidth=1;fontFamily=Times New Roman;fontSize=15;fontColor=#FF0000;" edge="1" parent="oSDIgCzuB7HVVvVzlJWJ-1" source="9SwlUtnQ1qe_b_hgyr5f-47">
          <mxGeometry width="50" height="50" relative="1" as="geometry">
            <mxPoint x="940" y="407.5" as="sourcePoint" />
            <mxPoint x="990" y="357.5" as="targetPoint" />
          </mxGeometry>
        </mxCell>
        <mxCell id="9SwlUtnQ1qe_b_hgyr5f-49" value="" style="endArrow=none;html=1;labelBackgroundColor=none;strokeWidth=1;fontFamily=Times New Roman;fontSize=15;fontColor=#FF0000;exitX=0.5;exitY=0;exitDx=0;exitDy=0;" edge="1" parent="oSDIgCzuB7HVVvVzlJWJ-1" source="9SwlUtnQ1qe_b_hgyr5f-46">
          <mxGeometry width="50" height="50" relative="1" as="geometry">
            <mxPoint x="990" y="407.5" as="sourcePoint" />
            <mxPoint x="1040" y="357.5" as="targetPoint" />
          </mxGeometry>
        </mxCell>
        <mxCell id="9SwlUtnQ1qe_b_hgyr5f-50" value="" style="endArrow=none;html=1;labelBackgroundColor=none;strokeWidth=1;fontFamily=Times New Roman;fontSize=15;fontColor=#FF0000;exitX=0.5;exitY=0;exitDx=0;exitDy=0;" edge="1" parent="oSDIgCzuB7HVVvVzlJWJ-1" source="lHFT-cJ2_tgGNmxRRqL1-3">
          <mxGeometry width="50" height="50" relative="1" as="geometry">
            <mxPoint x="1000" y="330" as="sourcePoint" />
            <mxPoint x="1050" y="280" as="targetPoint" />
          </mxGeometry>
        </mxCell>
        <mxCell id="9SwlUtnQ1qe_b_hgyr5f-51" value="" style="endArrow=none;html=1;labelBackgroundColor=none;strokeWidth=1;fontFamily=Times New Roman;fontSize=15;fontColor=#FF0000;exitX=0;exitY=0;exitDx=0;exitDy=0;" edge="1" parent="oSDIgCzuB7HVVvVzlJWJ-1" source="lHFT-cJ2_tgGNmxRRqL1-3">
          <mxGeometry width="50" height="50" relative="1" as="geometry">
            <mxPoint x="900" y="330" as="sourcePoint" />
            <mxPoint x="950" y="280" as="targetPoint" />
          </mxGeometry>
        </mxCell>
        <mxCell id="9SwlUtnQ1qe_b_hgyr5f-52" value="" style="endArrow=none;html=1;labelBackgroundColor=none;strokeWidth=1;fontFamily=Times New Roman;fontSize=15;fontColor=#FF0000;exitX=1;exitY=0.25;exitDx=0;exitDy=0;entryX=0.5;entryY=1;entryDx=0;entryDy=0;" edge="1" parent="oSDIgCzuB7HVVvVzlJWJ-1" source="lHFT-cJ2_tgGNmxRRqL1-3" target="9SwlUtnQ1qe_b_hgyr5f-44">
          <mxGeometry width="50" height="50" relative="1" as="geometry">
            <mxPoint x="1080" y="367.5" as="sourcePoint" />
            <mxPoint x="1130" y="317.5" as="targetPoint" />
          </mxGeometry>
        </mxCell>
        <mxCell id="9SwlUtnQ1qe_b_hgyr5f-53" value="" style="endArrow=none;html=1;labelBackgroundColor=none;strokeWidth=1;fontFamily=Times New Roman;fontSize=15;fontColor=#FF0000;exitX=1;exitY=0.75;exitDx=0;exitDy=0;entryX=0.5;entryY=0;entryDx=0;entryDy=0;" edge="1" parent="oSDIgCzuB7HVVvVzlJWJ-1" source="lHFT-cJ2_tgGNmxRRqL1-3" target="9SwlUtnQ1qe_b_hgyr5f-45">
          <mxGeometry width="50" height="50" relative="1" as="geometry">
            <mxPoint x="1020" y="510" as="sourcePoint" />
            <mxPoint x="1070" y="460" as="targetPoint" />
          </mxGeometry>
        </mxCell>
        <mxCell id="9SwlUtnQ1qe_b_hgyr5f-54" value="Kết quả" style="ellipse;whiteSpace=wrap;html=1;fontFamily=Times New Roman;labelBorderColor=none;labelBackgroundColor=none;fillColor=#dae8fc;strokeColor=#6c8ebf;fontStyle=1;fontColor=#FF0000;" vertex="1" parent="oSDIgCzuB7HVVvVzlJWJ-1">
          <mxGeometry x="400" y="600" width="90" height="40" as="geometry" />
        </mxCell>
        <mxCell id="9SwlUtnQ1qe_b_hgyr5f-55" value="Thời gian thực hiện" style="ellipse;whiteSpace=wrap;html=1;fontFamily=Times New Roman;labelBorderColor=none;labelBackgroundColor=none;fillColor=#dae8fc;strokeColor=#6c8ebf;fontStyle=1;fontColor=#FF0000;" vertex="1" parent="oSDIgCzuB7HVVvVzlJWJ-1">
          <mxGeometry x="500" y="600" width="90" height="40" as="geometry" />
        </mxCell>
        <mxCell id="9SwlUtnQ1qe_b_hgyr5f-56" value="Nơi nhận kết quả" style="ellipse;whiteSpace=wrap;html=1;fontFamily=Times New Roman;labelBorderColor=none;labelBackgroundColor=none;fillColor=#dae8fc;strokeColor=#6c8ebf;fontStyle=1;fontColor=#FF0000;" vertex="1" parent="oSDIgCzuB7HVVvVzlJWJ-1">
          <mxGeometry x="600" y="600" width="90" height="40" as="geometry" />
        </mxCell>
        <mxCell id="9SwlUtnQ1qe_b_hgyr5f-57" value="Loại" style="ellipse;whiteSpace=wrap;html=1;fontFamily=Times New Roman;labelBorderColor=none;labelBackgroundColor=none;fillColor=#dae8fc;strokeColor=#6c8ebf;fontStyle=1;fontColor=#FF0000;" vertex="1" parent="oSDIgCzuB7HVVvVzlJWJ-1">
          <mxGeometry x="290" y="600" width="90" height="40" as="geometry" />
        </mxCell>
        <mxCell id="9SwlUtnQ1qe_b_hgyr5f-58" value="Ngày nhận kết quả" style="ellipse;whiteSpace=wrap;html=1;fontFamily=Times New Roman;labelBorderColor=none;labelBackgroundColor=none;fillColor=#dae8fc;strokeColor=#6c8ebf;fontStyle=1;fontColor=#FF0000;" vertex="1" parent="oSDIgCzuB7HVVvVzlJWJ-1">
          <mxGeometry x="705" y="600" width="90" height="40" as="geometry" />
        </mxCell>
        <mxCell id="9SwlUtnQ1qe_b_hgyr5f-59" value="Nơi thực hiện" style="ellipse;whiteSpace=wrap;html=1;fontFamily=Times New Roman;labelBorderColor=none;labelBackgroundColor=none;fillColor=#dae8fc;strokeColor=#6c8ebf;fontStyle=1;fontColor=#FF0000;" vertex="1" parent="oSDIgCzuB7HVVvVzlJWJ-1">
          <mxGeometry x="820" y="600" width="90" height="40" as="geometry" />
        </mxCell>
        <mxCell id="9SwlUtnQ1qe_b_hgyr5f-60" value="ID Bác sĩ-Yêu cầu" style="ellipse;whiteSpace=wrap;html=1;fontFamily=Times New Roman;labelBorderColor=none;labelBackgroundColor=none;fillColor=#dae8fc;strokeColor=#6c8ebf;fontStyle=1;fontColor=#FF0000;" vertex="1" parent="oSDIgCzuB7HVVvVzlJWJ-1">
          <mxGeometry x="820" y="540" width="90" height="40" as="geometry" />
        </mxCell>
        <mxCell id="9SwlUtnQ1qe_b_hgyr5f-61" value="ID" style="ellipse;whiteSpace=wrap;html=1;fontFamily=Times New Roman;labelBorderColor=none;labelBackgroundColor=none;fillColor=#dae8fc;strokeColor=#6c8ebf;fontStyle=1;fontColor=#FF0000;" vertex="1" parent="oSDIgCzuB7HVVvVzlJWJ-1">
          <mxGeometry x="290" y="540" width="90" height="40" as="geometry" />
        </mxCell>
        <mxCell id="9SwlUtnQ1qe_b_hgyr5f-62" value="" style="endArrow=none;html=1;labelBackgroundColor=none;strokeWidth=1;fontFamily=Times New Roman;fontSize=15;fontColor=#FF0000;entryX=0;entryY=1;entryDx=0;entryDy=0;exitX=1;exitY=0;exitDx=0;exitDy=0;" edge="1" parent="oSDIgCzuB7HVVvVzlJWJ-1" source="9SwlUtnQ1qe_b_hgyr5f-61" target="lHFT-cJ2_tgGNmxRRqL1-2">
          <mxGeometry width="50" height="50" relative="1" as="geometry">
            <mxPoint x="540" y="520" as="sourcePoint" />
            <mxPoint x="590" y="470" as="targetPoint" />
          </mxGeometry>
        </mxCell>
        <mxCell id="9SwlUtnQ1qe_b_hgyr5f-63" value="" style="endArrow=none;html=1;labelBackgroundColor=none;strokeWidth=1;fontFamily=Times New Roman;fontSize=15;fontColor=#FF0000;exitX=1;exitY=0;exitDx=0;exitDy=0;" edge="1" parent="oSDIgCzuB7HVVvVzlJWJ-1" source="9SwlUtnQ1qe_b_hgyr5f-57">
          <mxGeometry width="50" height="50" relative="1" as="geometry">
            <mxPoint x="540" y="520" as="sourcePoint" />
            <mxPoint x="590" y="470" as="targetPoint" />
          </mxGeometry>
        </mxCell>
        <mxCell id="9SwlUtnQ1qe_b_hgyr5f-64" value="" style="endArrow=none;html=1;labelBackgroundColor=none;strokeWidth=1;fontFamily=Times New Roman;fontSize=15;fontColor=#FF0000;entryX=0.337;entryY=1;entryDx=0;entryDy=0;entryPerimeter=0;" edge="1" parent="oSDIgCzuB7HVVvVzlJWJ-1" source="9SwlUtnQ1qe_b_hgyr5f-54" target="lHFT-cJ2_tgGNmxRRqL1-2">
          <mxGeometry width="50" height="50" relative="1" as="geometry">
            <mxPoint x="540" y="520" as="sourcePoint" />
            <mxPoint x="590" y="470" as="targetPoint" />
          </mxGeometry>
        </mxCell>
        <mxCell id="9SwlUtnQ1qe_b_hgyr5f-65" value="" style="endArrow=none;html=1;labelBackgroundColor=none;strokeWidth=1;fontFamily=Times New Roman;fontSize=15;fontColor=#FF0000;exitX=0.5;exitY=0;exitDx=0;exitDy=0;entryX=0.5;entryY=1;entryDx=0;entryDy=0;" edge="1" parent="oSDIgCzuB7HVVvVzlJWJ-1" source="9SwlUtnQ1qe_b_hgyr5f-55" target="lHFT-cJ2_tgGNmxRRqL1-2">
          <mxGeometry width="50" height="50" relative="1" as="geometry">
            <mxPoint x="540" y="520" as="sourcePoint" />
            <mxPoint x="590" y="470" as="targetPoint" />
          </mxGeometry>
        </mxCell>
        <mxCell id="9SwlUtnQ1qe_b_hgyr5f-66" value="" style="endArrow=none;html=1;labelBackgroundColor=none;strokeWidth=1;fontFamily=Times New Roman;fontSize=15;fontColor=#FF0000;exitX=0.5;exitY=0;exitDx=0;exitDy=0;" edge="1" parent="oSDIgCzuB7HVVvVzlJWJ-1" source="9SwlUtnQ1qe_b_hgyr5f-60">
          <mxGeometry width="50" height="50" relative="1" as="geometry">
            <mxPoint x="610" y="520" as="sourcePoint" />
            <mxPoint x="660" y="470" as="targetPoint" />
          </mxGeometry>
        </mxCell>
        <mxCell id="9SwlUtnQ1qe_b_hgyr5f-67" value="" style="endArrow=none;html=1;labelBackgroundColor=none;strokeWidth=1;fontFamily=Times New Roman;fontSize=15;fontColor=#FF0000;entryX=0.89;entryY=1.007;entryDx=0;entryDy=0;entryPerimeter=0;exitX=0;exitY=0;exitDx=0;exitDy=0;" edge="1" parent="oSDIgCzuB7HVVvVzlJWJ-1" source="9SwlUtnQ1qe_b_hgyr5f-59" target="lHFT-cJ2_tgGNmxRRqL1-2">
          <mxGeometry width="50" height="50" relative="1" as="geometry">
            <mxPoint x="655" y="550" as="sourcePoint" />
            <mxPoint x="705" y="500" as="targetPoint" />
          </mxGeometry>
        </mxCell>
        <mxCell id="9SwlUtnQ1qe_b_hgyr5f-68" value="" style="endArrow=none;html=1;labelBackgroundColor=none;strokeWidth=1;fontFamily=Times New Roman;fontSize=15;fontColor=#FF0000;entryX=0.75;entryY=1;entryDx=0;entryDy=0;exitX=0.5;exitY=0;exitDx=0;exitDy=0;" edge="1" parent="oSDIgCzuB7HVVvVzlJWJ-1" source="9SwlUtnQ1qe_b_hgyr5f-58" target="lHFT-cJ2_tgGNmxRRqL1-2">
          <mxGeometry width="50" height="50" relative="1" as="geometry">
            <mxPoint x="610" y="560" as="sourcePoint" />
            <mxPoint x="660" y="510" as="targetPoint" />
          </mxGeometry>
        </mxCell>
        <mxCell id="9SwlUtnQ1qe_b_hgyr5f-69" value="" style="endArrow=none;html=1;labelBackgroundColor=none;strokeWidth=1;fontFamily=Times New Roman;fontSize=15;fontColor=#FF0000;exitX=0.5;exitY=0;exitDx=0;exitDy=0;entryX=0.643;entryY=1.007;entryDx=0;entryDy=0;entryPerimeter=0;" edge="1" parent="oSDIgCzuB7HVVvVzlJWJ-1" source="9SwlUtnQ1qe_b_hgyr5f-56" target="lHFT-cJ2_tgGNmxRRqL1-2">
          <mxGeometry width="50" height="50" relative="1" as="geometry">
            <mxPoint x="585" y="540" as="sourcePoint" />
            <mxPoint x="635" y="490" as="targetPoint" />
          </mxGeometry>
        </mxCell>
      </root>
    </mxGraphModel>
  </diagram>
</mxfile>
